<svg width="591" height="503" viewBox="0 0 591 503" fill="none" xmlns="http://www.w3.org/2000/svg">
<rect y="498" width="547" height="5" rx="2.5" fill="white"/>
<g clip-path="url(#clip0_87_1540)">
<path d="M278.939 369.009H240.105V448.642H278.939V369.009Z" fill="#7893A5"/>
<path d="M306.436 449.292H212.609C209.419 449.292 207.382 445.907 208.854 443.099L210.302 440.339C213.848 433.581 220.854 429.35 228.498 429.35H290.534C298.166 429.35 305.172 433.581 308.73 440.339L310.178 443.099C311.663 445.919 309.614 449.292 306.423 449.292H306.436Z" fill="#92ABBE"/>
<path d="M140.646 253.563H378.398C382.128 253.563 385.159 256.592 385.159 260.321V410.193C385.159 413.921 382.128 416.951 378.398 416.951H140.646C136.916 416.951 133.886 413.921 133.886 410.193V260.321C133.886 256.592 136.916 253.563 140.646 253.563Z" fill="#92ABBE"/>
<path d="M146.524 262.553H372.521C374.386 262.553 375.895 264.062 375.895 265.926V395.304C375.895 397.168 374.386 398.677 372.521 398.677H146.524C144.659 398.677 143.149 397.168 143.149 395.304V265.926C143.149 264.062 144.659 262.553 146.524 262.553Z" fill="#E8F3F5"/>
<path d="M143.1 264.846V281.146H375.907V264.846C375.907 263.571 374.876 262.541 373.6 262.541H145.407C144.131 262.541 143.1 263.571 143.1 264.846Z" fill="#0DA5C7"/>
<path d="M170.536 271.849C170.536 270.623 171.529 269.629 172.756 269.629C173.983 269.629 174.977 270.623 174.977 271.849C174.977 273.076 173.983 274.069 172.756 274.069C171.529 274.069 170.536 273.076 170.536 271.849Z" fill="white"/>
<path d="M160.278 271.849C160.278 270.623 161.272 269.629 162.499 269.629C163.726 269.629 164.72 270.623 164.72 271.849C164.72 273.076 163.726 274.069 162.499 274.069C161.272 274.069 160.278 273.076 160.278 271.849Z" fill="white"/>
<path d="M150.021 271.849C150.021 270.623 151.014 269.629 152.241 269.629C153.468 269.629 154.462 270.623 154.462 271.849C154.462 273.076 153.468 274.069 152.241 274.069C151.014 274.069 150.021 273.076 150.021 271.849Z" fill="white"/>
<path d="M356.153 271.849C356.153 268.366 358.975 265.545 362.459 265.545C365.944 265.545 368.766 268.366 368.766 271.849C368.766 275.332 365.944 278.153 362.459 278.153C358.975 278.153 356.153 275.332 356.153 271.849Z" fill="white"/>
<path d="M359.687 275.099C359.809 275.099 359.932 275.05 360.018 274.964L365.502 269.482C365.686 269.298 365.686 268.992 365.502 268.808C365.318 268.624 365.012 268.624 364.828 268.808L359.343 274.29C359.159 274.474 359.159 274.78 359.343 274.964C359.441 275.063 359.552 275.099 359.674 275.099H359.687Z" fill="#291A6D"/>
<path d="M365.171 275.099C365.294 275.099 365.417 275.05 365.502 274.964C365.686 274.78 365.686 274.474 365.502 274.29L360.018 268.808C359.834 268.624 359.527 268.624 359.343 268.808C359.159 268.992 359.159 269.298 359.343 269.482L364.828 274.964C364.926 275.063 365.036 275.099 365.159 275.099H365.171Z" fill="#291A6D"/>
<path d="M294.289 346.405H243.332C242.154 346.405 241.21 345.461 241.21 344.283C241.21 343.106 242.167 342.162 243.332 342.162H294.289C295.467 342.162 296.411 343.106 296.411 344.283C296.411 345.461 295.467 346.405 294.289 346.405Z" fill="#B8D0D7"/>
<path d="M273.062 355.101H243.332C242.154 355.101 241.21 354.156 241.21 352.979C241.21 351.802 242.167 350.857 243.332 350.857H273.062C274.228 350.857 275.185 351.814 275.185 352.979C275.185 354.156 274.228 355.101 273.062 355.101Z" fill="#B8D0D7"/>
<path d="M294.289 355.101H281.553C280.387 355.101 279.43 354.156 279.43 352.979C279.43 351.802 280.387 350.857 281.553 350.857H294.289C295.467 350.857 296.411 351.814 296.411 352.979C296.411 354.156 295.467 355.101 294.289 355.101Z" fill="#B8D0D7"/>
<path d="M294.289 363.808H243.332C242.154 363.808 241.21 362.852 241.21 361.687C241.21 360.509 242.167 359.565 243.332 359.565H294.289C295.467 359.565 296.411 360.509 296.411 361.687C296.411 362.864 295.467 363.808 294.289 363.808Z" fill="#B8D0D7"/>
<path d="M294.289 372.504H264.841C263.663 372.504 262.718 371.56 262.718 370.382C262.718 369.205 263.663 368.26 264.841 368.26H294.289C295.466 368.26 296.411 369.205 296.411 370.382C296.411 371.56 295.466 372.504 294.289 372.504Z" fill="#B8D0D7"/>
<path d="M256.068 372.504H243.467C242.289 372.504 241.344 371.56 241.344 370.382C241.344 369.205 242.289 368.26 243.467 368.26H256.068C257.246 368.26 258.191 369.205 258.191 370.382C258.191 371.56 257.246 372.504 256.068 372.504Z" fill="#B8D0D7"/>
<path d="M294.289 381.212H243.332C242.154 381.212 241.21 380.267 241.21 379.09C241.21 377.913 242.167 376.968 243.332 376.968H294.289C295.467 376.968 296.411 377.925 296.411 379.09C296.411 380.267 295.467 381.212 294.289 381.212Z" fill="#B8D0D7"/>
<path d="M294.215 389.736H283.847C282.669 389.736 281.724 388.779 281.724 387.614C281.724 386.449 282.669 385.492 283.847 385.492H294.215C295.393 385.492 296.338 386.449 296.338 387.614C296.338 388.791 295.393 389.736 294.215 389.736Z" fill="#B8D0D7"/>
<path d="M277.234 389.736H266.866C265.688 389.736 264.743 388.779 264.743 387.614C264.743 386.449 265.688 385.492 266.866 385.492H277.234C278.412 385.492 279.356 386.449 279.356 387.614C279.356 388.791 278.399 389.736 277.234 389.736Z" fill="#B8D0D7"/>
<path d="M259.258 389.736H243.406C242.228 389.736 241.283 388.779 241.283 387.614C241.283 386.449 242.228 385.492 243.406 385.492H259.258C260.436 385.492 261.381 386.449 261.381 387.614C261.381 388.791 260.436 389.736 259.258 389.736Z" fill="#B8D0D7"/>
<path d="M242.719 292.27H294.914C295.749 292.27 296.424 292.944 296.424 293.778V331.258C296.424 332.092 295.749 332.767 294.914 332.767H242.719C241.884 332.767 241.21 332.092 241.21 331.258V293.778C241.21 292.944 241.884 292.27 242.719 292.27Z" fill="#B8D0D7"/>
<path d="M296.411 314.664V331.271C296.411 332.105 295.736 332.779 294.902 332.779H242.706C241.872 332.779 241.197 332.105 241.197 331.271V328.229L253.308 314.763C253.896 314.113 254.903 314.1 255.516 314.726L264.583 324.108C265.185 324.734 266.191 324.721 266.78 324.084L285.43 303.761C286.056 303.087 287.135 303.111 287.712 303.835L296.411 314.677V314.664Z" fill="white"/>
<path d="M259.173 302.449C259.173 299.395 256.694 296.93 253.651 296.93C250.608 296.93 248.13 299.408 248.13 302.449C248.13 305.491 250.608 307.968 253.651 307.968C256.694 307.968 259.173 305.491 259.173 302.449Z" fill="white"/>
<path d="M294.902 341.438H242.719C241.885 341.438 241.21 342.113 241.21 342.947V380.427C241.21 381.26 241.885 381.935 242.719 381.935H294.902C295.736 381.935 296.411 381.26 296.411 380.427V342.947C296.411 342.113 295.736 341.438 294.902 341.438Z" fill="#B8D0D7"/>
<path d="M296.411 363.821V380.427C296.411 381.261 295.736 381.935 294.902 381.935H242.706C241.872 381.935 241.197 381.261 241.197 380.427V377.385L253.308 363.919C253.896 363.269 254.903 363.257 255.516 363.882L264.583 373.264C265.185 373.89 266.191 373.878 266.78 373.24L285.43 352.918C286.056 352.243 287.135 352.268 287.712 352.991L296.411 363.833V363.821Z" fill="white"/>
<path d="M259.173 351.605C259.173 348.551 256.694 346.086 253.651 346.086C250.608 346.086 248.13 348.564 248.13 351.605C248.13 354.647 250.608 357.124 253.651 357.124C256.694 357.124 259.173 354.647 259.173 351.605Z" fill="white"/>
<path d="M356.116 346.405H305.16C303.982 346.405 303.037 345.461 303.037 344.283C303.037 343.106 303.982 342.162 305.16 342.162H356.116C357.294 342.162 358.239 343.106 358.239 344.283C358.239 345.461 357.294 346.405 356.116 346.405Z" fill="#B8D0D7"/>
<path d="M334.877 355.101H305.147C303.969 355.101 303.025 354.156 303.025 352.979C303.025 351.802 303.969 350.857 305.147 350.857H334.877C336.055 350.857 337 351.814 337 352.979C337 354.156 336.055 355.101 334.877 355.101Z" fill="#B8D0D7"/>
<path d="M356.116 355.101H343.38C342.202 355.101 341.257 354.156 341.257 352.979C341.257 351.802 342.214 350.857 343.38 350.857H356.116C357.294 350.857 358.239 351.814 358.239 352.979C358.239 354.156 357.294 355.101 356.116 355.101Z" fill="#B8D0D7"/>
<path d="M356.116 363.808H305.16C303.982 363.808 303.037 362.852 303.037 361.687C303.037 360.509 303.982 359.565 305.16 359.565H356.116C357.294 359.565 358.239 360.509 358.239 361.687C358.239 362.864 357.294 363.808 356.116 363.808Z" fill="#B8D0D7"/>
<path d="M356.116 372.504H326.669C325.491 372.504 324.546 371.56 324.546 370.382C324.546 369.205 325.503 368.26 326.669 368.26H356.116C357.294 368.26 358.239 369.205 358.239 370.382C358.239 371.56 357.294 372.504 356.116 372.504Z" fill="#B8D0D7"/>
<path d="M317.896 372.504H305.295C304.117 372.504 303.172 371.56 303.172 370.382C303.172 369.205 304.117 368.26 305.295 368.26H317.896C319.074 368.26 320.018 369.205 320.018 370.382C320.018 371.56 319.074 372.504 317.896 372.504Z" fill="#B8D0D7"/>
<path d="M356.116 381.212H305.16C303.982 381.212 303.037 380.267 303.037 379.09C303.037 377.913 303.982 376.968 305.16 376.968H356.116C357.294 376.968 358.239 377.925 358.239 379.09C358.239 380.267 357.294 381.212 356.116 381.212Z" fill="#B8D0D7"/>
<path d="M356.042 389.736H345.674C344.497 389.736 343.552 388.779 343.552 387.614C343.552 386.449 344.509 385.492 345.674 385.492H356.042C357.22 385.492 358.165 386.449 358.165 387.614C358.165 388.791 357.208 389.736 356.042 389.736Z" fill="#B8D0D7"/>
<path d="M339.049 389.736H328.669C327.491 389.736 326.546 388.779 326.546 387.614C326.546 386.449 327.503 385.492 328.669 385.492H339.049C340.227 385.492 341.171 386.449 341.171 387.614C341.171 388.791 340.214 389.736 339.049 389.736Z" fill="#B8D0D7"/>
<path d="M321.074 389.736H305.221C304.043 389.736 303.098 388.779 303.098 387.614C303.098 386.449 304.043 385.492 305.221 385.492H321.074C322.251 385.492 323.196 386.449 323.196 387.614C323.196 388.791 322.251 389.736 321.074 389.736Z" fill="#B8D0D7"/>
<path d="M304.534 292.27H356.729C357.564 292.27 358.239 292.944 358.239 293.778V331.258C358.239 332.092 357.564 332.767 356.729 332.767H304.534C303.699 332.767 303.025 332.092 303.025 331.258V293.778C303.025 292.944 303.699 292.27 304.534 292.27Z" fill="#B8D0D7"/>
<path d="M358.239 314.664V331.271C358.239 332.105 357.564 332.779 356.729 332.779H304.534C303.699 332.779 303.025 332.105 303.025 331.271V328.229L315.135 314.763C315.724 314.113 316.73 314.1 317.343 314.726L326.411 324.108C327.012 324.734 328.018 324.721 328.607 324.084L347.257 303.761C347.883 303.087 348.963 303.111 349.539 303.835L358.239 314.677V314.664Z" fill="white"/>
<path d="M320.988 302.449C320.988 299.395 318.509 296.93 315.466 296.93C312.423 296.93 309.945 299.407 309.945 302.449C309.945 305.491 312.423 307.968 315.466 307.968C318.509 307.968 320.988 305.491 320.988 302.449Z" fill="white"/>
<path d="M481.182 303.381H463.207V396.91H481.182V303.381Z" fill="#20ACCB"/>
<path d="M485.722 389.956H458.655V475.587H485.722V389.956Z" fill="#92ABBE"/>
<path d="M410.741 165.308C410.741 168.901 407.821 169.159 404.226 169.159C400.631 169.159 397.711 168.913 397.711 165.308C397.711 161.702 400.631 158.795 404.226 158.795C407.821 158.795 410.741 161.714 410.741 165.308Z" fill="#7893A5"/>
<path d="M411.723 165.308H396.741C395.433 165.308 394.373 166.367 394.373 167.675V168.423C394.373 169.73 395.433 170.79 396.741 170.79H411.723C413.031 170.79 414.091 169.73 414.091 168.423V167.675C414.091 166.367 413.031 165.308 411.723 165.308Z" fill="#92ABBE"/>
<path d="M425.293 179.522C424.937 179.522 424.606 179.338 424.422 179.007L413.551 159.396C412.692 157.839 410.717 157.262 409.146 158.096L404.704 160.488C404.214 160.745 403.612 160.561 403.355 160.083C403.097 159.605 403.281 158.991 403.76 158.734L408.201 156.355C410.717 155.005 413.907 155.938 415.293 158.439L426.164 178.05C426.434 178.529 426.262 179.142 425.772 179.4C425.624 179.485 425.453 179.522 425.293 179.522Z" fill="#7893A5"/>
<path d="M472.2 165.308C472.2 168.901 469.28 169.159 465.685 169.159C462.09 169.159 459.17 168.913 459.17 165.308C459.17 161.702 462.09 158.795 465.685 158.795C469.28 158.795 472.2 161.714 472.2 165.308Z" fill="#7893A5"/>
<path d="M473.17 165.308H458.188C456.881 165.308 455.82 166.367 455.82 167.675V168.423C455.82 169.73 456.881 170.79 458.188 170.79H473.17C474.478 170.79 475.538 169.73 475.538 168.423V167.675C475.538 166.367 474.478 165.308 473.17 165.308Z" fill="#92ABBE"/>
<path d="M486.74 179.522C486.384 179.522 486.053 179.338 485.869 179.007L474.998 159.396C474.139 157.839 472.164 157.262 470.593 158.096L466.151 160.488C465.661 160.745 465.059 160.561 464.802 160.083C464.544 159.605 464.728 158.991 465.207 158.734L469.648 156.355C472.164 155.005 475.354 155.938 476.74 158.439L487.611 178.05C487.881 178.529 487.709 179.142 487.219 179.4C487.071 179.485 486.9 179.522 486.74 179.522Z" fill="#7893A5"/>
<path d="M533.647 165.308C533.647 168.901 530.727 169.159 527.132 169.159C523.537 169.159 520.617 168.913 520.617 165.308C520.617 161.702 523.537 158.795 527.132 158.795C530.727 158.795 533.647 161.714 533.647 165.308Z" fill="#7893A5"/>
<path d="M534.617 165.308H519.635C518.328 165.308 517.267 166.367 517.267 167.675V168.423C517.267 169.73 518.328 170.79 519.635 170.79H534.617C535.925 170.79 536.985 169.73 536.985 168.423V167.675C536.985 166.367 535.925 165.308 534.617 165.308Z" fill="#92ABBE"/>
<path d="M548.187 179.522C547.831 179.522 547.5 179.338 547.316 179.007L536.445 159.396C535.586 157.839 533.611 157.262 532.04 158.096L527.598 160.488C527.108 160.745 526.506 160.561 526.249 160.083C525.991 159.605 526.175 158.991 526.654 158.734L531.095 156.355C533.611 155.005 536.801 155.938 538.187 158.439L549.058 178.05C549.328 178.529 549.156 179.142 548.666 179.4C548.518 179.485 548.347 179.522 548.187 179.522Z" fill="#7893A5"/>
<path d="M586.224 177.817H370.288C368.106 177.817 366.337 179.585 366.337 181.767V305.613C366.337 307.795 368.106 309.563 370.288 309.563H586.224C588.406 309.563 590.174 307.795 590.174 305.613V181.767C590.174 179.585 588.406 177.817 586.224 177.817Z" fill="#7893A5"/>
<path d="M365.932 177.817H581.868C584.039 177.817 585.806 179.584 585.806 181.754V305.614C585.806 307.784 584.039 309.563 581.855 309.563H365.92C363.748 309.563 361.969 307.797 361.969 305.614V181.754C361.969 179.584 363.736 177.805 365.92 177.805L365.932 177.817Z" fill="#92ABBE"/>
<path d="M575.831 183.999H371.981C369.799 183.999 368.03 185.767 368.03 187.948V299.432C368.03 301.613 369.799 303.381 371.981 303.381H575.831C578.013 303.381 579.782 301.613 579.782 299.432V187.948C579.782 185.767 578.013 183.999 575.831 183.999Z" fill="#E8F3F5"/>
<mask id="mask0_87_1540" style="mask-type:luminance" maskUnits="userSpaceOnUse" x="368" y="184" width="212" height="120">
<path d="M371.969 303.394H575.819C578.001 303.394 579.77 301.625 579.77 299.444V187.96C579.77 185.779 578.001 184.011 575.819 184.011L371.969 184.011C369.787 184.011 368.018 185.779 368.018 187.96V299.444C368.018 301.625 369.787 303.394 371.969 303.394Z" fill="white"/>
</mask>
<g mask="url(#mask0_87_1540)">
<path d="M497.991 274.548C496.421 276.019 485.464 275.002 483.599 274.879C483.427 274.879 483.243 274.879 483.071 274.928C482.139 275.149 478.875 275.958 476.875 275.284C475.219 274.719 475.648 273.567 475.648 273.567C475.022 272.5 475.955 271.899 475.955 271.899C475.059 271.101 476.961 270.574 476.961 270.574C476.053 269.789 477.783 269.115 477.783 269.115C478.667 269.752 480.482 269.789 480.482 269.789C480.262 269.47 479.194 267.594 479.231 266.711C479.28 265.84 480.654 264.896 480.74 265.766C480.986 268.244 482.593 269.016 483.17 271.089C483.28 271.457 483.624 271.715 484.004 271.715C485.967 271.69 491.133 270.635 494.409 268.845C496.568 266.085 501.206 257.01 502.58 253.416L509.047 257.905C507.366 261.412 500.421 272.254 497.979 274.548H497.991Z" fill="#EEC7B4"/>
<path d="M512.617 216.966C512.617 216.966 507.734 223.711 507.869 229.856C508.004 236 513.783 239.165 513.267 242.979C512.752 246.793 508.703 249.822 509.967 253.723C511.231 257.623 529.378 267.263 535.66 263.35C541.942 259.438 544.175 253.306 541.525 247.86C538.874 242.415 539.009 239.483 540.96 236C542.911 232.505 543.893 224.95 539.279 219.235C534.335 213.09 524.053 208.969 512.605 216.978L512.617 216.966Z" fill="#291A6D"/>
<path d="M494.912 310.36C498.163 318.675 536.433 310.961 536.433 310.961C536.433 310.961 528.936 278.349 530.506 270.255C532.703 272.009 535.512 273.677 535.512 273.677C535.512 273.677 538.973 266.453 537.206 256.776C535.439 247.112 525.967 244.377 525.967 244.377C525.967 244.377 510.642 241.188 502.421 250.448C500.752 252.324 499.01 255.856 499.01 255.856L499.783 256.273C501.378 257.107 503.771 258.383 503.771 258.42C502.654 259.744 501.856 261.044 501.697 262.148C501.488 263.644 501.955 265.398 502.666 267.213C504.065 270.807 506.347 274.682 506.09 277.491C505.648 282.335 494.887 310.323 494.887 310.323L494.912 310.36Z" fill="#04E0E4"/>
<path d="M514.887 239.667C507.881 232.579 515.059 217.788 515.059 217.788L523.586 220.29L527.709 221.222L527.611 227.771C527.611 227.771 531.353 226.14 531.144 228.85C530.997 230.763 528.826 232.934 528.826 232.934C528.826 232.934 526.96 238.049 522.776 240.44C522.776 241.176 523.034 243.273 523.292 244.021C523.292 244.021 518.126 248.596 514.593 249.344C511.059 250.092 513.488 244.475 513.488 244.475C513.488 244.475 514.47 241.752 514.899 239.655L514.887 239.667Z" fill="#EEC7B4"/>
<path d="M507.39 224.104C507.39 224.104 508.924 222.755 509.022 220.228C509.12 217.702 510.347 214.12 514.605 214.12C516.138 214.12 517.083 215.457 517.66 216.99C521.316 216.119 533.218 217.456 534.506 218.769C536.089 220.388 534.249 226.005 536.605 228.359C538.973 230.726 533.647 242.378 530.384 240.17C527.108 237.963 529.071 236.528 529.218 234.418C529.365 232.309 524.089 230.076 520.801 227.096C518.47 224.974 517.525 221.381 517.734 219.934C517.734 219.934 514.666 223.834 507.366 224.104H507.39Z" fill="#291A6D"/>
<path d="M528.102 268.587C528.102 268.587 525.537 266.833 523.5 265.521L526.126 256.924L522.188 265.852L529.378 270.034L528.089 268.575L528.102 268.587Z" fill="#EDA800"/>
<path d="M521.304 288.198C519.734 289.67 508.777 288.652 506.912 288.529C506.74 288.529 506.556 288.529 506.384 288.578C505.452 288.799 502.188 289.621 500.188 288.934C498.531 288.37 498.961 287.217 498.961 287.217C498.335 286.15 499.268 285.537 499.268 285.537C498.372 284.74 499.697 283.955 499.697 283.955C498.789 283.17 500.225 282.348 500.225 282.348C501.108 282.986 503.783 283.44 503.783 283.44C503.562 283.121 502.495 281.244 502.531 280.361C502.58 279.49 503.955 278.546 504.041 279.417C504.286 281.894 505.893 282.667 506.47 284.74C506.568 285.107 506.924 285.365 507.304 285.365C509.267 285.341 514.433 284.286 517.709 282.495C519.869 279.736 524.507 270.66 525.881 267.066L532.347 271.555C530.666 275.063 523.721 285.917 521.28 288.198H521.304Z" fill="#EEC7B4"/>
<path d="M503.795 258.457C503.795 258.457 507.108 252.619 509.132 251.22C509.132 251.22 503.648 255.072 502.899 257.954L503.795 258.457Z" fill="#EDA800"/>
<path d="M512.961 228.274C512.961 228.274 511.501 230.261 510.703 230.861C509.905 231.462 512.494 232.848 512.494 232.848L512.961 228.274Z" fill="#EEC7B4"/>
<path d="M476.642 281.134H476.703C480.139 282.041 483.746 282.017 487.157 281.072L487.243 281.048L485.709 259.315H478.188L476.642 281.146V281.134Z" fill="#92ABBE"/>
<path d="M478.605 275.958L478.752 276.019C479.783 276.436 480.949 276.4 481.955 275.909L481.525 265.975C481.501 265.325 480.961 264.81 480.311 264.81H480.262C479.611 264.81 479.071 265.325 479.047 265.975L478.605 275.958Z" fill="#E8F3F5"/>
<path d="M476.544 282.52C480.016 283.893 483.881 283.893 487.354 282.52L487.243 281.048L487.157 281.072C483.746 282.029 480.127 282.054 476.703 281.158H476.642L476.544 282.532V282.52Z" fill="#7893A5"/>
<path d="M484.593 261.682H479.317C478.151 261.682 477.206 260.738 477.206 259.573V259.045C477.206 257.88 478.151 256.936 479.317 256.936H484.593C485.758 256.936 486.703 257.88 486.703 259.045V259.573C486.703 260.738 485.758 261.682 484.593 261.682Z" fill="#E8F3F5"/>
<path d="M484.593 261.682H479.317C478.151 261.682 477.206 260.738 477.206 259.573V259.045C477.206 257.88 478.151 256.936 479.317 256.936H484.593C485.758 256.936 486.703 257.88 486.703 259.045V259.573C486.703 260.738 485.758 261.682 484.593 261.682Z" fill="#7893A5"/>
<path d="M480.102 271.862C479.759 272.855 478.605 272.083 478.397 271.935C478.63 272.119 480.249 273.432 479.624 273.836C479.01 274.266 477.636 273.873 477.476 273.836C477.71 273.934 479.808 274.842 479.084 275.234C478.421 275.59 477.685 275.234 477.489 275.136C477.673 275.284 478.335 275.835 478.593 276.24C478.74 276.473 478.765 276.645 478.507 276.682C477.734 276.78 475.317 275.284 475.354 274.523C475.354 274.437 475.415 274.204 475.526 273.898C474.519 272.941 475.501 272.242 475.501 272.242C474.998 270.966 476.495 270.513 476.495 270.513C476.09 269.568 477.01 269.188 477.378 269.078C477.415 269.078 477.427 269.053 477.452 269.065C477.501 269.09 480.433 270.954 480.102 271.886V271.862Z" fill="#EEC7B4"/>
</g>
<path d="M396.287 209.631H393.036L391.747 206.271H385.821L384.594 209.631H381.416L387.195 194.816H390.361L396.3 209.631H396.287ZM390.778 203.769L388.729 198.275L386.729 203.769H390.778Z" fill="#36B4D0"/>
<path d="M397.882 194.816H403.355C404.582 194.816 405.526 194.914 406.177 195.098C407.048 195.356 407.796 195.809 408.41 196.459C409.023 197.109 409.502 197.919 409.821 198.863C410.14 199.808 410.312 200.973 410.312 202.359C410.312 203.573 410.164 204.628 409.858 205.511C409.49 206.59 408.962 207.461 408.275 208.123C407.76 208.626 407.06 209.018 406.177 209.3C405.514 209.509 404.631 209.619 403.526 209.619H397.895V194.804L397.882 194.816ZM400.876 197.318V207.13H403.109C403.944 207.13 404.545 207.08 404.913 206.982C405.391 206.86 405.796 206.651 406.115 206.369C406.434 206.075 406.692 205.609 406.901 204.934C407.097 204.272 407.207 203.364 407.207 202.224C407.207 201.083 407.109 200.2 406.901 199.587C406.692 198.974 406.41 198.495 406.054 198.152C405.686 197.809 405.232 197.575 404.668 197.453C404.25 197.355 403.428 197.306 402.214 197.306H400.864L400.876 197.318Z" fill="#36B4D0"/>
<path d="M416.029 209.631L410.729 194.816H413.968L417.723 205.78L421.354 194.816H424.532L419.219 209.631H416.029Z" fill="#36B4D0"/>
<path d="M426.115 209.631V194.816H437.109V197.318H429.109V200.605H436.544V203.107H429.109V207.142H437.391V209.644H426.115V209.631Z" fill="#36B4D0"/>
<path d="M439.87 209.631V194.816H446.164C447.747 194.816 448.9 194.951 449.612 195.221C450.323 195.49 450.9 195.957 451.33 196.643C451.759 197.318 451.98 198.103 451.98 198.974C451.98 200.09 451.649 201.009 450.998 201.733C450.348 202.457 449.366 202.91 448.066 203.107C448.716 203.487 449.244 203.892 449.673 204.345C450.09 204.799 450.667 205.596 451.379 206.749L453.182 209.644H449.6L447.44 206.418C446.667 205.265 446.152 204.542 445.857 204.235C445.575 203.928 445.281 203.732 444.962 203.622C444.643 203.511 444.139 203.45 443.452 203.45H442.851V209.631H439.857H439.87ZM442.863 201.083H445.072C446.508 201.083 447.403 201.022 447.759 200.899C448.115 200.776 448.397 200.568 448.593 200.274C448.79 199.979 448.9 199.611 448.9 199.158C448.9 198.655 448.765 198.262 448.495 197.956C448.225 197.649 447.857 197.453 447.366 197.379C447.121 197.342 446.397 197.33 445.182 197.33H442.851V201.083H442.863Z" fill="#36B4D0"/>
<path d="M457.98 209.631V197.318H453.587V194.816H465.366V197.318H460.974V209.631H457.98Z" fill="#36B4D0"/>
<path d="M467.096 209.631V194.816H470.09V209.631H467.096Z" fill="#36B4D0"/>
<path d="M472.213 204.799L475.121 204.517C475.292 205.498 475.648 206.21 476.188 206.664C476.728 207.117 477.452 207.35 478.36 207.35C479.329 207.35 480.053 207.142 480.544 206.737C481.035 206.332 481.28 205.854 481.28 205.302C481.28 204.946 481.182 204.652 480.973 204.407C480.765 204.162 480.409 203.941 479.894 203.769C479.538 203.646 478.74 203.438 477.501 203.119C475.894 202.727 474.777 202.236 474.127 201.647C473.219 200.838 472.765 199.844 472.765 198.667C472.765 197.907 472.973 197.208 473.403 196.545C473.832 195.883 474.446 195.392 475.256 195.049C476.065 194.706 477.035 194.534 478.176 194.534C480.041 194.534 481.44 194.939 482.372 195.76C483.317 196.582 483.808 197.661 483.857 199.023L480.863 199.158C480.74 198.397 480.458 197.845 480.041 197.514C479.624 197.183 478.986 197.011 478.151 197.011C477.317 197.011 476.605 197.195 476.114 197.551C475.795 197.784 475.636 198.091 475.636 198.471C475.636 198.827 475.783 199.121 476.078 199.366C476.458 199.685 477.366 200.016 478.826 200.36C480.286 200.703 481.354 201.059 482.053 201.427C482.752 201.795 483.292 202.297 483.685 202.935C484.078 203.573 484.274 204.358 484.274 205.29C484.274 206.136 484.041 206.933 483.562 207.669C483.084 208.405 482.421 208.957 481.562 209.325C480.703 209.681 479.624 209.865 478.335 209.865C476.458 209.865 475.022 209.435 474.016 208.565C473.01 207.694 472.409 206.43 472.213 204.775V204.799Z" fill="#36B4D0"/>
<path d="M486.642 209.631V194.816H489.636V209.631H486.642Z" fill="#36B4D0"/>
<path d="M492.568 209.631V194.816H495.476L501.537 204.713V194.816H504.323V209.631H501.317L495.341 199.967V209.631H492.556H492.568Z" fill="#36B4D0"/>
<path d="M514.2 204.174V201.672H520.654V207.571C520.028 208.172 519.12 208.712 517.93 209.178C516.74 209.644 515.537 209.877 514.31 209.877C512.764 209.877 511.415 209.546 510.261 208.896C509.108 208.246 508.237 207.313 507.66 206.112C507.083 204.897 506.789 203.585 506.789 202.162C506.789 200.617 507.108 199.243 507.758 198.054C508.409 196.852 509.353 195.932 510.593 195.294C511.537 194.804 512.728 194.558 514.139 194.558C515.979 194.558 517.415 194.939 518.445 195.711C519.476 196.484 520.151 197.551 520.445 198.912L517.476 199.464C517.267 198.741 516.875 198.164 516.298 197.735C515.721 197.318 514.997 197.109 514.139 197.109C512.826 197.109 511.795 197.526 511.022 198.348C510.249 199.182 509.869 200.409 509.869 202.04C509.869 203.794 510.261 205.118 511.047 206.001C511.832 206.884 512.85 207.326 514.114 207.326C514.74 207.326 515.366 207.203 516.004 206.958C516.629 206.712 517.169 206.418 517.623 206.062V204.186H514.2V204.174Z" fill="#36B4D0"/>
<path d="M513.146 277.264L497.263 231.339L483.962 235.935L499.845 281.86L513.146 277.264Z" fill="#F44964"/>
<path d="M490.998 234.872C487.317 236.147 484.151 236.626 483.918 235.951C483.685 235.277 486.47 233.707 490.151 232.431C493.832 231.156 496.998 230.677 497.231 231.352C497.464 232.027 494.666 233.596 490.998 234.872Z" fill="#DC2C4A"/>
<path d="M506.887 280.802C503.206 282.078 500.041 282.556 499.807 281.882C499.574 281.207 502.36 279.637 506.041 278.362C509.721 277.086 512.887 276.608 513.12 277.282C513.353 277.957 510.568 279.527 506.887 280.802Z" fill="#F44964"/>
<path d="M482.433 256.568L475.391 232.922C474.851 231.094 475.894 229.157 477.722 228.605L482.851 227.059C484.667 226.52 486.605 227.538 487.182 229.377L488.765 234.21C488.765 234.21 488.765 234.21 488.765 234.222C488.801 234.345 489.66 234.173 490.654 233.829C491.574 233.511 492.311 233.167 492.384 233.02H492.409L490.838 228.212C489.648 224.41 485.574 222.252 481.759 223.392L476.63 224.938C472.777 226.091 470.569 230.175 471.722 234.026L478.765 257.672C479.305 259.487 478.274 261.412 476.47 261.976L315.135 312.163C314.988 312.261 315.11 313.095 315.417 314.076C315.724 315.094 316.104 315.867 316.276 315.818L477.636 265.619C481.44 264.442 483.611 260.37 482.47 256.556L482.433 256.568Z" fill="#291A6D"/>
<path d="M355.122 410.438H421.232C423.784 410.438 425.845 408.378 425.845 405.827C425.845 403.276 423.784 401.215 421.232 401.215H355.122C352.57 401.215 350.509 403.276 350.509 405.827C350.509 408.378 352.57 410.438 355.122 410.438Z" fill="#7893A5"/>
<path d="M353.576 444.754H420.459V437.58H353.576V444.754Z" fill="#7893A5"/>
<path d="M346.214 479.07H430.14V471.896H346.214V479.07Z" fill="#7893A5"/>
<path d="M342.754 496.707L364.668 405.814H358.521L336.951 495.309C336.497 497.185 337.92 499 339.859 499C341.245 499 342.435 498.056 342.767 496.707H342.754Z" fill="#7893A5"/>
<path d="M436.434 495.456L414.827 405.814H408.68L430.618 496.792C430.925 498.08 432.078 498.988 433.403 498.988H433.649C435.502 498.988 436.876 497.259 436.434 495.443V495.456Z" fill="#7893A5"/>
<path d="M417.379 292.797C420.459 290.651 434.225 277.957 434.225 277.957C434.225 277.957 433.342 273.971 433.857 272.794C434.09 272.303 434.434 271.297 435.244 270.623C435.244 270.623 437.82 268.734 438.508 268.648C439.195 268.562 438.937 269.899 438.679 270.414C438.422 270.929 436.299 272.941 436.299 272.941C436.189 273.149 436.127 273.346 436.164 273.456C436.189 273.579 436.336 273.529 436.544 273.358C437.367 272.757 439.293 270.549 440.593 269.298C442.25 267.716 443.857 266.625 444.262 266.612C444.998 266.575 444.986 267.25 444.876 267.422C445.035 267.422 446.741 267.446 446.507 268.44C446.507 268.44 446.63 268.464 446.188 269.274C446.188 269.274 447.109 270.316 446.287 271.457L444.066 276.007C443.219 277.172 441.489 280.054 437.931 280.606C437.931 280.606 425.686 298.623 422.311 300.058C418.937 301.493 406.042 307.576 406.042 307.576L404.901 298.009C404.901 298.009 414.275 294.943 417.355 292.785L417.379 292.797Z" fill="#E8C4B9"/>
<path d="M417.183 472.681C416.459 471.013 406.79 470.019 403.441 469.921C399.662 469.823 402.999 467.554 399.956 467.959L396.901 468.376C396.901 468.376 395.797 470.326 395.821 473.306C395.821 473.502 395.821 473.686 395.846 473.895C395.981 475.931 402.3 475.636 408.164 475.048C411.821 474.68 415.404 474.986 417.011 473.355C417.244 473.122 417.293 472.901 417.195 472.693L417.183 472.681Z" fill="#EDA800"/>
<path d="M395.674 460.882L396.165 470.142C396.165 470.142 404.385 471.356 402.913 469.884L403.355 461.262L395.674 460.87V460.882Z" fill="#E8C4B9"/>
<path d="M386.484 470.08C385.723 468.474 376.729 468.228 373.613 468.388C370.104 468.584 373.097 466.07 370.288 466.708L367.478 467.358C367.478 467.358 366.545 469.381 366.717 472.349C366.717 472.533 366.742 472.73 366.766 472.938C366.987 474.949 372.828 474.177 378.239 473.134C381.613 472.484 384.938 472.521 386.349 470.767C386.545 470.522 386.594 470.289 386.496 470.093L386.484 470.08Z" fill="#EDA800"/>
<path d="M365.907 459.729L366.926 468.952C366.926 468.952 374.766 469.86 373.907 468.376L373.588 459.68L365.895 459.729H365.907Z" fill="#E8C4B9"/>
<path d="M400.729 355.677C400.729 355.677 376.668 363.343 358.055 359.614C358.055 359.614 356.263 385.124 364.644 464.856L374.423 464.611C374.423 464.611 377.208 448.262 378.729 382.353L380.754 382.181C380.754 382.181 388.422 438.144 393.551 464.868L404.643 464.439C404.643 464.439 404.925 379.703 400.717 355.702L400.729 355.677Z" fill="#291A6D"/>
<path d="M351.282 311.366C351.282 311.366 347.858 325.139 344.447 323.213C341.944 321.803 337.478 308.962 337.478 308.962L334.006 309.673C334.006 309.673 335.797 333.626 343.368 336.692C346.116 337.808 356.656 326.046 356.656 326.046L361.515 314.591L351.282 311.366Z" fill="#E8C4B9"/>
<path d="M413.698 308.054C413.269 301.591 410.888 293.582 410.888 293.582C400.839 295.876 390.287 291.988 378.656 290.908C376.067 290.675 366.165 290.884 360.349 294.281C353.858 298.071 348.717 309.428 347.638 313.083C347.638 313.083 351.92 314.076 356.067 314.456C354.901 331.308 354.828 362.631 354.828 362.631C375.085 364.569 403.085 357.48 403.085 357.48C402.496 351.605 400.312 331.369 399.981 308.778C406.876 309.538 413.698 308.054 413.698 308.054Z" fill="#98A2A3"/>
<path d="M388.827 265.913C388.827 265.913 390.017 269.679 390.336 271.408C390.655 273.125 392.422 273.456 392.594 273.996C392.754 274.45 391.735 275.713 391.735 275.713C391.735 275.713 393.993 280.668 392.594 282.287C391.195 283.905 386.349 283.905 386.349 283.905V292.307C386.349 292.307 380.214 295.643 373.956 291.546V283.476C373.956 283.476 369.539 273.566 373.527 267.643C377.515 261.719 388.827 265.926 388.827 265.926V265.913Z" fill="#E8C4B9"/>
<path d="M392.864 262.479C393.551 259.781 392.459 258.162 389.723 258.726C384.337 259.83 381.146 255.243 373.281 259.008C371.797 259.72 370.447 260.701 369.294 261.878C369.294 261.044 369.441 260.026 369.441 260.026C368.705 260.983 368.459 262.087 368.374 262.847C367.49 263.019 365.38 263.522 365.036 264.454C365.036 264.454 366.398 263.914 367.478 264.11C364.03 269.298 363.736 276.706 369.834 282.581C373.453 286.076 378.791 283.047 380.557 279.76C380.557 279.76 377.232 280.067 376.987 277.724C376.791 275.897 378.251 274.633 379.539 275.48C381.49 276.78 381.257 277.049 382.005 276.939C382.005 276.939 381.208 273.652 381.748 270.954C381.748 270.954 390.263 269.605 392.14 265.3C392.14 265.3 390.741 266.159 390.312 266.22C390.312 266.22 392.165 265.251 392.876 262.467L392.864 262.479Z" fill="#291A6D"/>
<path d="M338.03 310.507C338.03 310.507 339.773 309.894 340.938 308.839C341.981 307.907 342.656 304.093 341 305.663C338.619 307.907 338.975 306.116 338.583 305.393C338.276 304.816 337.626 303.86 336.448 305.025C336.448 305.025 335.184 303.676 334.448 305.27C334.448 305.27 332.227 305.184 332.3 306.165C332.3 306.165 330.669 306.472 330.975 307.564C331.282 308.655 334.141 311.304 334.141 311.304L338.006 310.507H338.03Z" fill="#E8C4B9"/>
<path d="M579.782 226.103C579.782 226.103 553.893 221.847 535.463 236.012C527.66 215.003 528.003 192.314 544.175 184.011C544.175 184.011 573.463 208.577 579.782 226.103Z" fill="white"/>
<path d="M579.782 187.936V226.091C573.463 208.565 544.175 183.999 544.175 183.999H575.831C578.015 183.999 579.782 185.765 579.782 187.936Z" fill="#20ACCB"/>
<path d="M156.033 292.343H228.228C230.964 292.343 233.197 294.563 233.197 297.31V328.119C233.197 330.866 230.977 333.086 228.228 333.086H156.033C153.297 333.086 151.063 330.866 151.063 328.119V297.31C151.063 294.563 153.284 292.343 156.033 292.343Z" fill="white"/>
<path d="M226.989 294.808H157.284C155.638 294.808 154.303 296.143 154.303 297.789V327.64C154.303 329.286 155.638 330.621 157.284 330.621H226.989C228.636 330.621 229.97 329.286 229.97 327.64V297.789C229.97 296.143 228.636 294.808 226.989 294.808Z" fill="#E8F3F5"/>
<path d="M192.13 318.013C196.84 318.013 200.658 314.197 200.658 309.489C200.658 304.782 196.84 300.965 192.13 300.965C187.421 300.965 183.603 304.782 183.603 309.489C183.603 314.197 187.421 318.013 192.13 318.013Z" fill="white"/>
<path d="M197.21 309.146L190.118 305.049C189.861 304.902 189.529 305.086 189.529 305.393V313.585C189.529 313.892 189.861 314.076 190.118 313.929L197.21 309.832C197.468 309.685 197.468 309.305 197.21 309.146Z" fill="#F44964"/>
<path d="M226.388 325.654C226.388 326.463 225.737 327.101 224.94 327.101H159.346C158.536 327.101 157.898 326.451 157.898 325.654C157.898 324.857 158.548 324.207 159.346 324.207H224.94C225.75 324.207 226.388 324.857 226.388 325.654Z" fill="white"/>
<path d="M196.241 324.194V327.101H159.346C158.536 327.101 157.898 326.451 157.898 325.654C157.898 324.856 158.548 324.206 159.346 324.206H196.241V324.194Z" fill="#F44964"/>
<path d="M184.388 343.609H152.462C151.726 343.609 151.137 343.008 151.137 342.284C151.137 341.548 151.726 340.96 152.462 340.96H184.388C185.124 340.96 185.713 341.561 185.713 342.284C185.713 343.02 185.112 343.609 184.388 343.609Z" fill="#B8D0D7"/>
<path d="M171.088 349.066H152.462C151.726 349.066 151.137 348.465 151.137 347.742C151.137 347.006 151.726 346.405 152.462 346.405H171.088C171.824 346.405 172.413 347.006 172.413 347.742C172.413 348.478 171.812 349.066 171.088 349.066Z" fill="#B8D0D7"/>
<path d="M184.388 349.066H176.401C175.664 349.066 175.075 348.465 175.075 347.742C175.075 347.006 175.677 346.405 176.401 346.405H184.388C185.124 346.405 185.713 347.006 185.713 347.742C185.713 348.478 185.112 349.066 184.388 349.066Z" fill="#B8D0D7"/>
<path d="M184.388 354.512H152.462C151.726 354.512 151.137 353.911 151.137 353.187C151.137 352.451 151.726 351.863 152.462 351.863H184.388C185.124 351.863 185.713 352.464 185.713 353.187C185.713 353.923 185.112 354.512 184.388 354.512Z" fill="#B8D0D7"/>
<path d="M184.388 359.97H165.934C165.198 359.97 164.609 359.369 164.609 358.645C164.609 357.909 165.211 357.321 165.934 357.321H184.388C185.124 357.321 185.713 357.922 185.713 358.645C185.713 359.381 185.112 359.97 184.388 359.97Z" fill="#B8D0D7"/>
<path d="M160.45 359.97H152.56C151.824 359.97 151.235 359.369 151.235 358.645C151.235 357.909 151.836 357.321 152.56 357.321H160.45C161.186 357.321 161.775 357.922 161.775 358.645C161.775 359.381 161.174 359.97 160.45 359.97Z" fill="#B8D0D7"/>
<path d="M184.388 365.415H152.462C151.726 365.415 151.137 364.814 151.137 364.091C151.137 363.355 151.726 362.754 152.462 362.754H184.388C185.124 362.754 185.713 363.355 185.713 364.091C185.713 364.826 185.112 365.415 184.388 365.415Z" fill="#B8D0D7"/>
<path d="M184.351 370.762H177.848C177.112 370.762 176.523 370.161 176.523 369.438C176.523 368.702 177.124 368.113 177.848 368.113H184.351C185.088 368.113 185.677 368.714 185.677 369.438C185.677 370.174 185.088 370.762 184.351 370.762Z" fill="#B8D0D7"/>
<path d="M173.701 370.762H167.198C166.462 370.762 165.873 370.161 165.873 369.438C165.873 368.702 166.474 368.113 167.198 368.113H173.701C174.437 368.113 175.026 368.714 175.026 369.438C175.026 370.174 174.425 370.762 173.701 370.762Z" fill="#B8D0D7"/>
<path d="M162.438 370.762H152.499C151.763 370.762 151.174 370.161 151.174 369.438C151.174 368.702 151.775 368.113 152.499 368.113H162.438C163.174 368.113 163.775 368.714 163.775 369.438C163.775 370.174 163.174 370.762 162.438 370.762Z" fill="#B8D0D7"/>
<path d="M229.504 343.609H197.578C196.842 343.609 196.253 343.008 196.253 342.284C196.253 341.548 196.854 340.96 197.578 340.96H229.504C230.24 340.96 230.829 341.561 230.829 342.284C230.829 343.02 230.24 343.609 229.504 343.609Z" fill="#B8D0D7"/>
<path d="M216.191 349.066H197.566C196.83 349.066 196.241 348.465 196.241 347.742C196.241 347.006 196.842 346.405 197.566 346.405H216.191C216.928 346.405 217.517 347.006 217.517 347.742C217.517 348.478 216.915 349.066 216.191 349.066Z" fill="#B8D0D7"/>
<path d="M229.504 349.066H221.517C220.78 349.066 220.191 348.465 220.191 347.742C220.191 347.006 220.793 346.405 221.517 346.405H229.504C230.24 346.405 230.829 347.006 230.829 347.742C230.829 348.478 230.24 349.066 229.504 349.066Z" fill="#B8D0D7"/>
<path d="M229.504 354.512H197.578C196.842 354.512 196.253 353.911 196.253 353.187C196.253 352.451 196.854 351.863 197.578 351.863H229.504C230.24 351.863 230.829 352.464 230.829 353.187C230.829 353.923 230.24 354.512 229.504 354.512Z" fill="#B8D0D7"/>
<path d="M229.504 359.97H211.05C210.314 359.97 209.725 359.369 209.725 358.645C209.725 357.909 210.327 357.321 211.05 357.321H229.504C230.24 357.321 230.829 357.922 230.829 358.645C230.829 359.381 230.24 359.97 229.504 359.97Z" fill="#B8D0D7"/>
<path d="M205.554 359.97H197.664C196.928 359.97 196.339 359.369 196.339 358.645C196.339 357.909 196.94 357.321 197.664 357.321H205.554C206.29 357.321 206.879 357.922 206.879 358.645C206.879 359.381 206.278 359.97 205.554 359.97Z" fill="#B8D0D7"/>
<path d="M229.504 365.415H197.578C196.842 365.415 196.253 364.814 196.253 364.091C196.253 363.355 196.854 362.754 197.578 362.754H229.504C230.24 362.754 230.829 363.355 230.829 364.091C230.829 364.826 230.24 365.415 229.504 365.415Z" fill="#B8D0D7"/>
<path d="M229.455 370.762H222.952C222.216 370.762 221.627 370.161 221.627 369.438C221.627 368.702 222.228 368.113 222.952 368.113H229.455C230.191 368.113 230.793 368.714 230.793 369.438C230.793 370.174 230.191 370.762 229.455 370.762Z" fill="#B8D0D7"/>
<path d="M218.817 370.762H212.314C211.578 370.762 210.989 370.161 210.989 369.438C210.989 368.702 211.59 368.113 212.314 368.113H218.817C219.553 368.113 220.142 368.714 220.142 369.438C220.142 370.174 219.541 370.762 218.817 370.762Z" fill="#B8D0D7"/>
<path d="M207.554 370.762H197.615C196.879 370.762 196.29 370.161 196.29 369.438C196.29 368.702 196.891 368.113 197.615 368.113H207.554C208.29 368.113 208.879 368.714 208.879 369.438C208.879 370.174 208.29 370.762 207.554 370.762Z" fill="#B8D0D7"/>
<path d="M228.645 376.527H153.37C152.184 376.527 151.223 377.488 151.223 378.673V389.306C151.223 390.492 152.184 391.453 153.37 391.453H228.645C229.831 391.453 230.793 390.492 230.793 389.306V378.673C230.793 377.488 229.831 376.527 228.645 376.527Z" fill="white"/>
<path d="M177.542 381.985H158.254C157.812 381.985 157.456 381.629 157.456 381.175C157.456 380.734 157.812 380.378 158.254 380.378H177.542C177.983 380.378 178.351 380.734 178.351 381.175C178.351 381.617 177.996 381.985 177.542 381.985Z" fill="#B8D0D7"/>
<path d="M169.505 385.271H158.254C157.812 385.271 157.456 384.916 157.456 384.474C157.456 384.033 157.812 383.665 158.254 383.665H169.505C169.947 383.665 170.303 384.02 170.303 384.474C170.303 384.916 169.947 385.271 169.505 385.271Z" fill="#B8D0D7"/>
<path d="M177.542 385.271H172.72C172.278 385.271 171.91 384.916 171.91 384.474C171.91 384.033 172.266 383.665 172.72 383.665H177.542C177.983 383.665 178.351 384.02 178.351 384.474C178.351 384.916 177.996 385.271 177.542 385.271Z" fill="#B8D0D7"/>
<path d="M177.542 388.571H158.254C157.812 388.571 157.456 388.215 157.456 387.761C157.456 387.32 157.812 386.964 158.254 386.964H177.542C177.983 386.964 178.351 387.32 178.351 387.761C178.351 388.203 177.996 388.571 177.542 388.571Z" fill="#B8D0D7"/>
<path d="M203.026 381.985H185.37C184.928 381.985 184.56 381.629 184.56 381.175C184.56 380.734 184.916 380.378 185.37 380.378H203.026C203.468 380.378 203.836 380.734 203.836 381.175C203.836 381.617 203.48 381.985 203.026 381.985Z" fill="#B8D0D7"/>
<path d="M196.413 385.271H185.382C184.94 385.271 184.572 384.916 184.572 384.474C184.572 384.033 184.928 383.665 185.382 383.665H196.413C196.854 383.665 197.222 384.02 197.222 384.474C197.222 384.916 196.867 385.271 196.413 385.271Z" fill="#B8D0D7"/>
<path d="M202.768 385.271H199.578C199.136 385.271 198.781 384.916 198.781 384.474C198.781 384.033 199.136 383.665 199.578 383.665H202.768C203.21 383.665 203.578 384.02 203.578 384.474C203.578 384.916 203.222 385.271 202.768 385.271Z" fill="#B8D0D7"/>
<path d="M202.768 388.571H185.382C184.94 388.571 184.572 388.215 184.572 387.761C184.572 387.32 184.928 386.964 185.382 386.964H202.768C203.21 386.964 203.578 387.32 203.578 387.761C203.578 388.203 203.222 388.571 202.768 388.571Z" fill="#B8D0D7"/>
<path d="M104.536 476.433L103.027 492.23C102.892 493.69 104.033 494.953 105.506 494.953H110.941C112.217 494.953 113.297 493.984 113.42 492.708L115.101 475.33L104.536 476.433Z" fill="#7893A5"/>
<path d="M197.222 474.9L197.468 490.697C197.333 492.156 198.474 493.42 199.946 493.42H205.382C206.658 493.42 207.738 492.451 207.86 491.175L207.603 473.821L197.222 474.9Z" fill="#7893A5"/>
<path d="M205.247 468.915H104.635L103.199 393.378C102.217 365.611 123.947 343.094 151.738 343.094C179.517 343.094 202.842 365.611 203.811 393.378L205.247 468.915Z" fill="#7893A5"/>
<path d="M207.738 476.102H102.217L100.733 393.427C100.242 379.36 105.273 366.09 114.917 356.106C124.548 346.135 137.616 340.641 151.726 340.641C180.769 340.641 205.235 364.262 206.253 393.292L207.738 476.102ZM107.027 466.462H202.731L201.333 393.427C200.4 367.046 178.143 345.547 151.714 345.547C138.953 345.547 127.137 350.502 118.438 359.516C109.727 368.53 105.187 380.525 105.628 393.292L107.027 466.462Z" fill="#7893A5"/>
<path d="M90.1317 478.555L88.6225 494.352C88.4876 495.811 89.6287 497.075 91.101 497.075H96.5365C97.8126 497.075 98.8923 496.106 99.015 494.83L100.696 477.451L90.1317 478.555Z" fill="#92ABBE"/>
<path d="M185.259 477.451L184.143 494.352C184.008 495.811 185.149 497.075 186.621 497.075H192.057C193.333 497.075 194.413 496.106 194.535 494.83L195.701 477.464H185.272L185.259 477.451Z" fill="#92ABBE"/>
<path d="M193.382 476.102H92.7697L98.5611 393.378C100.5 365.611 124.598 343.094 152.389 343.094C180.167 343.094 201.124 365.611 199.173 393.378L193.382 476.102Z" fill="#E8F3F5"/>
<path d="M195.664 478.555H90.1317L96.1071 393.219C98.1316 364.238 123.383 340.653 152.376 340.653C166.474 340.653 179.37 346.148 188.67 356.119C198.008 366.126 202.597 379.421 201.615 393.562L195.664 478.567V478.555ZM95.3954 473.649H191.087L196.719 393.219C197.615 380.451 193.48 368.457 185.088 359.467C176.72 350.501 165.112 345.559 152.376 345.559C125.898 345.559 102.855 367.095 101.003 393.562L95.3954 473.662V473.649Z" fill="#92ABBE"/>
<path d="M156.376 408.378C155.652 409.518 153.382 410.156 155.297 412.229C155.53 412.486 155.689 415.197 153.333 415.319C151.824 415.393 150.978 416.681 150.757 418.005C150.376 420.299 148.794 421.292 146.953 421.991C143.763 423.205 143.628 423.377 145.186 426.456C145.248 426.578 145.346 426.689 145.395 426.823C145.653 427.719 146.732 428.737 145.824 429.473C144.965 430.184 143.64 429.828 142.646 429.227C141.162 428.332 140.364 427.044 140.426 425.229C140.487 423.071 140.487 420.986 139.383 418.913C138.634 417.502 139.076 415.614 139.358 413.958C139.567 412.744 139.432 411.787 138.192 411.125C137.395 410.708 136.806 409.935 136.033 409.445C133.469 407.826 133.174 405.557 134.082 402.932C134.364 402.123 134.364 401.277 134.512 400.455C134.683 399.437 134.303 398.909 133.346 398.946C131.346 399.008 130.622 397.708 130.266 396.101C129.984 394.813 128.929 394.445 128.094 394.666C125.113 395.439 123.248 393.906 122.266 391.588C121.506 389.76 120.512 388.313 119.162 386.903C118.107 385.799 117.297 384.462 116.414 383.199C119.874 374.38 126.708 367.267 135.321 363.416C135.321 364.409 134.929 365.513 136.524 365.918C135.309 366.997 134.045 366.274 132.929 366.58C132.475 366.703 131.751 366.678 131.788 367.218C131.812 367.647 132.094 368.26 132.818 368.359C134.131 368.53 135.358 368.42 136.487 367.696C137.775 366.875 139.199 366.654 140.708 366.629C142.352 366.605 142.401 367.402 141.591 368.395C141.125 368.972 141.186 369.941 140.254 370.174C139.947 370.247 139.456 370.726 139.37 370.321C139.039 368.788 138.217 369.646 137.689 369.978C136.646 370.628 137.064 371.744 137.1 372.676C137.137 373.448 137.714 373.914 138.45 374.111C138.904 374.233 139.235 374.098 139.444 373.608C140.107 372.099 141.837 371.633 142.72 370.198C143.468 368.96 145.333 369.806 146.057 370.345C147.824 371.682 150.082 372.381 151.456 374.258C152.082 375.116 152.99 376.085 151.824 376.956C150.818 377.729 149.996 377.103 149.297 376.048C148.794 375.288 147.714 374.111 147.284 376.269C147.284 376.367 147.284 376.453 147.284 376.539C147.284 377.348 147.027 377.802 145.935 378.158C144.585 378.612 142.843 378.783 141.996 380.157C141.199 381.445 140.008 382.23 138.745 382.598C137.616 382.941 137.567 383.456 137.505 384.352C137.334 386.817 135.849 388.264 133.64 388.215C133.53 388.117 133.444 388.006 133.321 387.933C132.463 387.467 133.493 385.786 131.959 385.786C130.009 385.799 127.898 385.541 126.401 387.074C125.334 388.178 126.045 389.76 126.242 391.011C126.401 392.054 127.628 392.005 128.659 391.686C129.947 391.293 131.272 391.269 132.585 391.563C132.61 391.747 132.634 391.882 132.634 392.017C132.61 392.924 130.561 392.875 131.456 394.028C132.548 395.451 133.984 396.69 136.021 396.309C137.677 396.003 139.285 395.574 140.99 395.684C142.745 395.807 144.131 396.26 145.014 398.088C145.972 400.075 147.518 401.608 149.861 402.086C151.763 402.478 153.628 403.006 155.517 403.361C156.266 403.496 156.622 403.877 156.83 404.514C157.235 405.839 157.186 407.127 156.413 408.341L156.376 408.378Z" fill="white"/>
<path d="M168.168 365.17C167.885 365.501 167.591 365.808 167.284 366.077C167.211 366.139 167.137 366.2 167.063 366.261C166.842 366.458 166.597 366.617 166.352 366.752C166.278 366.801 166.192 366.85 166.094 366.887C166.033 366.924 165.959 366.948 165.885 366.985C165.775 367.034 165.665 367.083 165.542 367.12C165.456 367.144 165.37 367.169 165.284 367.181C164.683 367.328 164.008 367.328 163.223 367.157C161.505 366.776 159.346 366.617 159.346 369.511C159.346 369.965 158.904 369.99 158.609 370.149C157.812 370.591 157.014 370.627 156.217 370.112C155.149 369.426 155.542 368.31 155.677 367.451C156.094 364.777 155.935 364.618 153.407 364.078C152.106 363.796 150.254 364.483 149.689 362.324C149.517 361.687 148.769 362.251 148.548 362.619C147.959 363.637 147.591 364.691 148.794 365.611C149.456 366.114 150.143 366.592 150.732 367.181C151.64 368.089 151.382 369.156 150.364 369.511C149.395 369.867 148.094 369.953 147.518 368.518C147.149 367.598 146.695 366.605 145.628 366.396C143.432 365.967 144.094 364.446 144.855 363.649C145.714 362.754 145.959 361.895 145.898 360.926C145.898 360.853 145.898 360.779 145.873 360.706C145.873 360.644 145.861 360.595 145.849 360.534C147.211 360.374 148.597 360.301 149.996 360.301C156.609 360.301 162.806 362.079 168.143 365.182L168.168 365.17Z" fill="white"/>
<path d="M183.088 381.862C182.67 381.886 182.266 381.899 181.885 381.837C181.824 381.837 181.75 381.813 181.689 381.8C181.505 381.764 181.333 381.69 181.174 381.604C181.1 381.567 181.026 381.506 180.953 381.469C180.879 381.42 180.818 381.359 180.744 381.285C180.695 381.236 180.634 381.175 180.585 381.101C180.523 381.04 180.474 380.967 180.425 380.893C180.315 380.746 180.229 380.574 180.131 380.378C179.628 379.274 178.131 378.98 177.505 380.022C175.996 382.536 174.094 382.438 171.836 381.469C171.591 381.359 171.296 381.384 170.818 381.31C171.775 379.801 173.529 379.617 174.621 378.599C174.401 377.876 173.787 378.158 173.37 378.011C172.683 377.753 172.045 377.434 173.1 376.833C173.652 376.515 174.057 376.147 173.836 375.521C173.615 374.883 173.002 375.202 172.548 375.141C171.542 375.031 170.143 375.251 170.094 373.853C170.045 372.725 171.063 372.21 172.278 372.087C172.413 372.075 172.56 372.05 172.695 372.013C172.756 372.001 172.83 371.989 172.891 371.964C172.953 371.94 173.014 371.928 173.063 371.915C173.1 371.903 173.137 371.879 173.186 371.866C173.26 371.842 173.333 371.805 173.419 371.768C174.082 371.474 174.671 371.008 175.26 370.554C178.548 373.767 181.235 377.606 183.112 381.862H183.088Z" fill="white"/>
<path d="M113.923 396.383C113.923 416.313 130.094 432.477 150.033 432.477C161.149 432.477 171.088 427.449 177.701 419.563C178.18 418.999 178.646 418.41 179.075 417.809C179.91 416.693 180.658 415.54 181.345 414.338C181.272 414.277 181.21 414.203 181.137 414.142L181.517 413.271C181.358 413.271 181.198 413.271 181.051 413.222C179.554 412.94 179.124 411.836 180.192 410.782C181.051 409.935 181.345 408.979 181.64 407.863C182.069 406.244 181.554 405.312 180.118 404.674C178.56 403.975 177.738 403.079 179.345 401.571C180.02 400.945 179.836 400.381 179.223 399.78C177.897 398.468 176.082 398.603 175.014 399.412C173.652 400.455 172.536 400.492 171.051 400.185C166.303 399.204 166.229 399.081 166.168 394.188C166.131 391.919 166.278 389.846 168.364 388.411C168.99 387.982 169.1 387.307 169.186 386.571C169.431 384.229 170.732 383.346 173.039 383.922C173.652 384.069 173.873 383.677 174.278 383.456C176.29 382.401 178.278 382.083 180.278 383.689C180.401 383.787 180.523 383.885 180.646 383.984C180.769 384.082 180.891 384.18 181.014 384.266C181.149 384.364 181.272 384.45 181.407 384.548C181.468 384.585 181.529 384.634 181.603 384.67C181.738 384.756 181.873 384.83 182.008 384.903C182.143 384.977 182.29 385.038 182.425 385.1C182.499 385.136 182.572 385.161 182.646 385.173C182.719 385.186 182.793 385.222 182.867 385.235C182.989 385.271 183.112 385.296 183.247 385.308C183.345 385.308 183.456 385.333 183.554 385.333C183.701 385.333 183.848 385.32 183.996 385.296C184.094 385.284 184.204 385.259 184.302 385.235C184.315 385.235 184.327 385.235 184.339 385.235C183.983 384.094 183.554 382.978 183.063 381.899C182.646 381.935 182.241 381.935 181.861 381.874C181.799 381.874 181.726 381.862 181.664 381.837C181.493 381.801 181.308 381.739 181.149 381.641C181.075 381.604 181.002 381.555 180.928 381.506C180.854 381.457 180.781 381.396 180.72 381.322C180.658 381.273 180.609 381.212 180.548 381.151C180.499 381.077 180.437 381.016 180.388 380.942C180.278 380.795 180.192 380.623 180.106 380.427C179.591 379.323 178.106 379.029 177.468 380.071C175.959 382.585 174.057 382.487 171.799 381.518C171.554 381.408 171.26 381.433 170.781 381.359C171.738 379.85 173.493 379.654 174.597 378.649C174.376 377.925 173.763 378.207 173.333 378.048C172.646 377.802 172.008 377.471 173.063 376.87C173.615 376.551 174.02 376.183 173.799 375.546C173.579 374.908 172.953 375.227 172.511 375.178C171.493 375.067 170.106 375.276 170.057 373.89C170.008 372.762 171.026 372.259 172.253 372.124C172.388 372.112 172.536 372.087 172.671 372.05C172.732 372.038 172.806 372.026 172.867 372.001C172.928 371.989 172.99 371.977 173.039 371.952C173.075 371.952 173.112 371.915 173.161 371.903C173.235 371.879 173.309 371.829 173.394 371.805C174.057 371.511 174.658 371.057 175.235 370.603C173.112 368.543 170.744 366.727 168.168 365.231C167.885 365.562 167.591 365.869 167.284 366.139C167.21 366.2 167.137 366.274 167.063 366.323C166.842 366.519 166.597 366.678 166.352 366.826C166.266 366.875 166.192 366.911 166.094 366.96C166.033 366.997 165.959 367.034 165.885 367.059C165.775 367.108 165.665 367.144 165.542 367.194C165.456 367.218 165.37 367.243 165.284 367.255C164.683 367.402 164.008 367.402 163.223 367.23C161.505 366.85 159.346 366.691 159.346 369.585C159.346 370.039 158.904 370.076 158.609 370.223C157.812 370.652 157.002 370.701 156.217 370.186C155.149 369.499 155.542 368.383 155.677 367.525C156.094 364.851 155.935 364.704 153.407 364.14C152.106 363.858 150.254 364.544 149.677 362.386C149.505 361.748 148.757 362.312 148.548 362.668C147.959 363.686 147.591 364.741 148.794 365.66C149.468 366.163 150.143 366.642 150.732 367.23C151.64 368.138 151.37 369.205 150.364 369.561C149.395 369.916 148.094 370.002 147.518 368.567C147.149 367.647 146.695 366.654 145.628 366.445C143.432 366.016 144.094 364.495 144.855 363.698C145.702 362.803 145.959 361.932 145.898 360.975C145.898 360.914 145.898 360.841 145.886 360.767C145.886 360.706 145.873 360.657 145.861 360.595C142.143 361.024 138.585 362.018 135.297 363.49C135.297 364.483 134.904 365.599 136.499 365.992C135.297 367.071 134.021 366.347 132.904 366.654C132.462 366.789 131.726 366.752 131.763 367.292C131.788 367.721 132.07 368.334 132.794 368.432C134.107 368.604 135.334 368.506 136.475 367.77C137.763 366.948 139.186 366.727 140.696 366.703C142.34 366.678 142.389 367.476 141.579 368.481C141.113 369.058 141.162 370.027 140.242 370.26C139.935 370.333 139.456 370.812 139.358 370.407C139.027 368.861 138.205 369.732 137.677 370.063C136.634 370.713 137.051 371.829 137.076 372.762C137.113 373.534 137.689 374 138.426 374.197C138.88 374.319 139.211 374.197 139.419 373.694C140.082 372.185 141.812 371.719 142.695 370.284C143.456 369.045 145.309 369.879 146.021 370.431C147.787 371.768 150.045 372.467 151.419 374.344C152.045 375.202 152.953 376.171 151.787 377.042C150.781 377.815 149.947 377.189 149.248 376.122C148.744 375.362 147.665 374.184 147.235 376.343C147.235 376.429 147.235 376.527 147.235 376.613C147.235 377.422 146.978 377.876 145.886 378.232C144.536 378.685 142.794 378.857 141.947 380.231C141.149 381.518 139.959 382.303 138.696 382.671C137.567 383.015 137.505 383.53 137.456 384.437C137.285 386.903 135.8 388.338 133.579 388.301C133.481 388.215 133.383 388.092 133.26 388.019C132.413 387.553 133.432 385.872 131.91 385.872C129.959 385.885 127.849 385.627 126.352 387.16C125.285 388.264 125.996 389.846 126.193 391.097C126.352 392.139 127.579 392.09 128.61 391.772C129.898 391.379 131.223 391.355 132.536 391.649C132.561 391.833 132.585 391.968 132.585 392.103C132.573 393.01 130.512 392.961 131.407 394.114C132.499 395.537 133.935 396.775 135.972 396.395C137.628 396.089 139.235 395.659 140.941 395.77C142.708 395.892 144.082 396.346 144.965 398.174C145.922 400.16 147.468 401.694 149.812 402.172C151.714 402.564 153.567 403.092 155.468 403.447C156.217 403.582 156.573 403.95 156.781 404.6C157.198 405.925 157.137 407.213 156.364 408.427C155.64 409.555 153.37 410.205 155.284 412.278C155.517 412.535 155.689 415.258 153.333 415.381C151.812 415.454 150.965 416.742 150.757 418.067C150.376 420.36 148.794 421.354 146.953 422.053C143.763 423.267 143.628 423.438 145.186 426.517C145.248 426.64 145.358 426.75 145.395 426.885C145.64 427.78 146.732 428.798 145.824 429.534C144.965 430.245 143.64 429.89 142.634 429.289C141.149 428.381 140.352 427.093 140.413 425.29C140.487 423.132 140.487 421.047 139.37 418.974C138.622 417.564 139.064 415.675 139.346 414.019C139.554 412.805 139.419 411.836 138.18 411.186C137.383 410.769 136.794 409.997 136.021 409.506C133.456 407.887 133.162 405.618 134.07 402.994C134.352 402.184 134.352 401.338 134.487 400.516C134.659 399.498 134.278 398.971 133.321 398.995C131.321 399.057 130.597 397.757 130.254 396.162C129.972 394.874 128.917 394.507 128.07 394.715C125.088 395.488 123.223 393.955 122.242 391.637C121.469 389.809 120.487 388.362 119.138 386.964C118.082 385.86 117.273 384.523 116.377 383.26C114.769 387.344 113.898 391.784 113.898 396.444L113.923 396.383Z" fill="#0DA5C7"/>
<path d="M183.088 381.862C182.67 381.898 182.265 381.898 181.885 381.837C182.265 381.898 182.67 381.886 183.088 381.862Z" fill="#E9B87E"/>
<path d="M168.364 388.399C168.99 387.969 169.1 387.295 169.186 386.559C169.431 384.216 170.732 383.333 173.039 383.91C173.652 384.057 173.873 383.665 174.278 383.444C176.29 382.389 178.278 382.07 180.278 383.677C180.401 383.775 180.523 383.873 180.646 383.971C180.769 384.069 180.891 384.167 181.014 384.253C181.149 384.351 181.272 384.437 181.407 384.535C181.468 384.572 181.529 384.621 181.603 384.658C181.738 384.744 181.873 384.817 182.008 384.891C182.143 384.965 182.29 385.026 182.425 385.087C182.499 385.124 182.572 385.149 182.646 385.161C182.72 385.173 182.793 385.21 182.867 385.222C182.989 385.259 183.112 385.283 183.247 385.296C183.345 385.296 183.456 385.32 183.554 385.32C183.701 385.32 183.848 385.308 183.996 385.283C184.094 385.283 184.204 385.247 184.302 385.222C184.315 385.222 184.327 385.222 184.339 385.222C185.492 388.742 186.106 392.495 186.106 396.407C186.106 402.049 184.818 407.384 182.499 412.143C182.315 412.523 182.131 412.903 181.934 413.271C181.787 413.271 181.652 413.271 181.505 413.271C181.345 413.271 181.186 413.271 181.039 413.222C179.542 412.94 179.112 411.836 180.18 410.781C181.039 409.935 181.333 408.978 181.628 407.862C182.057 406.243 181.542 405.311 180.106 404.674C178.548 403.975 177.726 403.079 179.333 401.571C180.008 400.945 179.824 400.381 179.21 399.78C177.885 398.468 176.069 398.603 175.002 399.412C173.64 400.455 172.523 400.491 171.039 400.185C166.29 399.204 166.217 399.081 166.155 394.187C166.119 391.919 166.266 389.846 168.352 388.411L168.364 388.399Z" fill="white"/>
<path d="M181.137 414.13C181.21 414.191 181.284 414.265 181.345 414.326C181.554 413.97 181.75 413.615 181.947 413.247C181.799 413.247 181.664 413.247 181.517 413.247L181.137 414.117V414.13Z" fill="#90C4E6"/>
<path d="M164.094 406.158C164.094 406.158 164.204 406.146 164.254 406.109C164.376 406.023 164.413 405.839 164.315 405.716C164.106 405.422 163.996 405.262 163.996 405.262C163.91 405.14 163.738 405.103 163.603 405.189C163.468 405.275 163.444 405.446 163.53 405.581C163.53 405.581 163.64 405.741 163.861 406.047C163.91 406.121 164.008 406.17 164.094 406.17V406.158Z" fill="#1A6381"/>
<path d="M175.701 418.422C175.394 418.189 175.1 417.944 174.806 417.711C174.683 417.613 174.671 417.441 174.769 417.318C174.867 417.196 175.051 417.184 175.161 417.282C175.456 417.515 175.75 417.76 176.045 417.993C176.167 418.091 176.192 418.263 176.094 418.385C176.045 418.459 175.959 418.496 175.873 418.496C175.812 418.496 175.75 418.471 175.701 418.435V418.422ZM173.493 416.595C173.198 416.337 172.916 416.092 172.634 415.834C172.523 415.724 172.511 415.552 172.609 415.43C172.707 415.319 172.891 415.307 173.002 415.405C173.284 415.663 173.566 415.908 173.849 416.153C173.971 416.251 173.983 416.435 173.873 416.558C173.824 416.619 173.738 416.656 173.664 416.656C173.603 416.656 173.529 416.632 173.48 416.583L173.493 416.595ZM171.382 414.657C171.1 414.387 170.83 414.117 170.56 413.86C170.45 413.75 170.45 413.566 170.56 413.455C170.671 413.345 170.855 413.345 170.965 413.455C171.223 413.713 171.505 413.983 171.775 414.252C171.885 414.363 171.885 414.534 171.775 414.657C171.714 414.718 171.64 414.743 171.566 414.743C171.493 414.743 171.419 414.718 171.37 414.669L171.382 414.657ZM169.37 412.621C169.1 412.339 168.842 412.057 168.585 411.787C168.474 411.677 168.487 411.493 168.597 411.382C168.707 411.272 168.892 411.284 169.002 411.395C169.247 411.665 169.505 411.947 169.775 412.229C169.885 412.339 169.873 412.523 169.775 412.633C169.726 412.683 169.652 412.707 169.579 412.707C169.505 412.707 169.431 412.682 169.37 412.621ZM167.444 410.512C167.186 410.217 166.941 409.923 166.695 409.641C166.597 409.518 166.609 409.347 166.732 409.248C166.855 409.15 167.027 409.163 167.125 409.285C167.358 409.567 167.603 409.849 167.861 410.144C167.959 410.266 167.947 410.438 167.836 410.548C167.787 410.598 167.714 410.622 167.652 410.622C167.579 410.622 167.493 410.585 167.444 410.524V410.512ZM165.603 408.316C165.346 407.997 165.112 407.691 164.892 407.421C164.793 407.298 164.818 407.114 164.941 407.029C165.063 406.93 165.247 406.955 165.333 407.078C165.542 407.347 165.775 407.654 166.033 407.973C166.131 408.096 166.106 408.267 165.984 408.365C165.934 408.402 165.873 408.427 165.812 408.427C165.726 408.427 165.652 408.39 165.591 408.316H165.603Z" fill="#1A6381"/>
<path d="M177.701 419.845C177.787 419.845 177.873 419.808 177.934 419.722C178.02 419.6 177.996 419.416 177.861 419.33C177.713 419.22 177.554 419.109 177.407 418.999C177.284 418.913 177.1 418.937 177.014 419.06C176.928 419.183 176.953 419.367 177.075 419.453C177.223 419.563 177.382 419.673 177.542 419.784C177.591 419.821 177.652 419.833 177.701 419.833V419.845Z" fill="#1A6381"/>
<path d="M141.518 379.507C141.518 379.507 141.211 379.213 140.708 378.697C140.597 378.587 140.597 378.403 140.708 378.293C140.818 378.182 141.002 378.182 141.113 378.293C141.616 378.796 141.91 379.09 141.91 379.09C142.021 379.2 142.021 379.372 141.91 379.495C141.849 379.556 141.775 379.58 141.702 379.58C141.628 379.58 141.554 379.556 141.505 379.507H141.518ZM139.518 377.483C139.272 377.226 139.015 376.956 138.732 376.662C138.622 376.551 138.634 376.367 138.732 376.257C138.843 376.146 139.027 376.159 139.137 376.257C139.407 376.551 139.665 376.821 139.91 377.079C140.021 377.189 140.021 377.373 139.91 377.483C139.861 377.532 139.788 377.557 139.714 377.557C139.64 377.557 139.567 377.532 139.505 377.471L139.518 377.483ZM137.579 375.411C137.334 375.141 137.076 374.859 136.818 374.564C136.72 374.454 136.72 374.27 136.843 374.172C136.953 374.074 137.137 374.074 137.248 374.196C137.505 374.478 137.751 374.761 138.008 375.03C138.119 375.141 138.107 375.325 137.996 375.435C137.947 375.484 137.873 375.509 137.8 375.509C137.726 375.509 137.653 375.484 137.591 375.423L137.579 375.411ZM135.702 373.289C135.456 373.007 135.211 372.712 134.965 372.43C134.867 372.308 134.88 372.136 135.002 372.038C135.125 371.94 135.297 371.952 135.395 372.075C135.64 372.369 135.886 372.651 136.119 372.933C136.217 373.056 136.205 373.227 136.094 373.338C136.045 373.387 135.972 373.411 135.91 373.411C135.837 373.411 135.751 373.375 135.702 373.313V373.289ZM133.886 371.106C133.653 370.811 133.42 370.505 133.186 370.21C133.088 370.088 133.113 369.904 133.235 369.818C133.358 369.72 133.542 369.744 133.628 369.867C133.861 370.161 134.094 370.456 134.327 370.75C134.426 370.873 134.401 371.044 134.278 371.143C134.229 371.179 134.168 371.204 134.107 371.204C134.021 371.204 133.947 371.167 133.886 371.093V371.106ZM132.168 368.837C131.947 368.518 131.726 368.211 131.518 367.905C131.432 367.77 131.469 367.598 131.591 367.512C131.726 367.426 131.898 367.463 131.984 367.586C132.193 367.892 132.401 368.199 132.622 368.506C132.708 368.628 132.683 368.812 132.561 368.898C132.512 368.935 132.45 368.947 132.401 368.947C132.315 368.947 132.229 368.91 132.168 368.825V368.837ZM130.61 366.445C130.536 366.31 130.462 366.188 130.389 366.065C130.315 365.93 130.364 365.758 130.499 365.685C130.634 365.611 130.806 365.66 130.88 365.795C130.953 365.918 131.027 366.04 131.101 366.175C131.174 366.31 131.137 366.482 131.002 366.556C130.953 366.58 130.904 366.592 130.855 366.592C130.757 366.592 130.659 366.543 130.61 366.457V366.445Z" fill="#1A6381"/>
<path d="M157.726 389.036C158.29 388.546 158.352 387.7 157.861 387.135L155.603 384.511C155.112 383.947 154.266 383.885 153.701 384.376C153.137 384.867 153.076 385.713 153.554 386.277L155.812 388.902C156.303 389.466 157.149 389.527 157.714 389.036H157.726Z" fill="#310078"/>
<path d="M148.278 397.18C148.843 396.689 148.904 395.843 148.413 395.279L146.156 392.654C145.665 392.09 144.818 392.029 144.254 392.519C143.689 393.01 143.628 393.856 144.107 394.42L146.364 397.045C146.855 397.609 147.702 397.671 148.266 397.18H148.278Z" fill="#310078"/>
<path d="M163.223 407.2L159.935 412.609L157.432 408.721L160.119 404.073L151.444 396.837L142.266 411.885L140.254 406.771C140.254 406.771 146.389 392.397 146.806 391.207C147.223 390.018 143.395 387.172 141.677 384.805C140.377 382.99 140.131 380.464 140.094 379.372C140.094 379.029 140.217 378.71 140.475 378.489C140.732 378.268 141.064 378.182 141.407 378.244C142.487 378.44 144.941 379.053 146.548 380.611C148.646 382.659 150.904 386.866 152.131 386.62C153.37 386.375 168.487 382.426 168.487 382.426L173.247 385.161L157.002 392.029L162.879 401.681L167.873 399.707L171.345 402.748L165.505 405.213L165.922 406.158C166.425 407.31 165.137 408.427 164.069 407.752L163.198 407.2H163.223Z" fill="#F44964"/>
<path d="M146.475 448.225H109.506C107.862 448.225 106.536 446.901 106.536 445.257C106.536 443.614 107.862 442.289 109.506 442.289H146.475C148.106 442.289 149.444 443.614 149.444 445.257C149.444 446.888 148.119 448.225 146.475 448.225Z" fill="#B8D0D7"/>
<path d="M176.953 466.928H134.364C132.732 466.928 131.395 465.604 131.395 463.96C131.395 462.317 132.72 460.992 134.364 460.992H176.953C178.585 460.992 179.922 462.317 179.922 463.96C179.922 465.592 178.597 466.928 176.953 466.928Z" fill="#B8D0D7"/>
<path d="M181.664 448.225H156.487C154.855 448.225 153.517 446.901 153.517 445.257C153.517 443.614 154.843 442.289 156.487 442.289H181.664C183.296 442.289 184.634 443.614 184.634 445.257C184.634 446.888 183.308 448.225 181.664 448.225Z" fill="#B8D0D7"/>
<path d="M133.616 457.571H108.438C106.794 457.571 105.469 456.246 105.469 454.603C105.469 452.959 106.794 451.635 108.438 451.635H133.616C135.26 451.635 136.585 452.959 136.585 454.603C136.585 456.234 135.26 457.571 133.616 457.571Z" fill="#B8D0D7"/>
<path d="M125.027 466.928H106.905C105.26 466.928 103.935 465.604 103.935 463.96C103.935 462.317 105.26 460.992 106.905 460.992H125.027C126.659 460.992 127.996 462.317 127.996 463.96C127.996 465.592 126.671 466.928 125.027 466.928Z" fill="#B8D0D7"/>
<path d="M156.536 457.571H144.033C142.401 457.571 141.064 456.246 141.064 454.603C141.064 452.959 142.389 451.635 144.033 451.635H156.536C158.168 451.635 159.505 452.959 159.505 454.603C159.505 456.234 158.18 457.571 156.536 457.571Z" fill="#B8D0D7"/>
<path d="M178.94 457.571H167.37C165.738 457.571 164.401 456.246 164.401 454.603C164.401 452.959 165.726 451.635 167.37 451.635H178.94C180.572 451.635 181.91 452.959 181.91 454.603C181.91 456.234 180.585 457.571 178.94 457.571Z" fill="#B8D0D7"/>
<path d="M92.9415 364.74C92.9415 364.74 102.401 368.076 103.125 368.101C103.849 368.125 108.193 366.973 110.168 367.794C111.628 368.395 114.168 369.303 114.561 369.769C114.953 370.235 112.745 370.149 112.279 370.002C111.812 369.855 110.463 370.321 110.389 370.456C110.316 370.591 113.653 371.167 115.088 371.67C116.524 372.173 117.285 372.676 117.272 372.909C117.26 373.142 114.573 372.994 113.739 372.823C112.917 372.639 116.696 373.694 117.457 374.393C118.217 375.092 114.07 374.638 113.052 374.319C112.033 374 116.843 375.288 117.138 375.828C117.432 376.367 112.978 375.938 111.849 375.656C110.733 375.362 115.26 376.294 115.493 376.686C115.726 377.079 110.438 376.956 108.622 376.686C106.941 376.441 104.954 376.306 101.592 373.313C100.978 372.761 91.8495 371.854 91.8495 371.854L92.917 364.765L92.9415 364.74Z" fill="#E8C4B9"/>
<path d="M45.2489 490.93C45.2489 490.93 42.9054 491.776 39.1263 491.727L39.1999 496.792C39.1999 496.792 41.8502 497.111 43.617 496.854L44.3041 495.554L45.7397 496.927C45.7397 496.927 54.169 497.859 58.5248 497.553C58.5248 497.553 59.0279 496.069 56.9665 495.394C54.8929 494.72 50.1691 493.8 48.8317 493.052C47.4943 492.304 45.2489 490.942 45.2489 490.942V490.93Z" fill="#291A6D"/>
<path d="M38.8318 483.424L39.0649 489.789L39.1385 491.727C42.6477 492.794 45.2366 490.93 45.2366 490.93L45.298 488.87L45.4452 483.522L38.8318 483.4V483.424Z" fill="#E8C4B9"/>
<path d="M67.0278 491.359C67.0278 491.359 64.6842 492.206 60.9052 492.157L60.991 497.222C60.991 497.222 63.6413 497.541 65.4082 497.283L66.0953 495.983L67.5308 497.357C67.5308 497.357 75.9602 498.289 80.3159 497.982C80.3159 497.982 80.819 496.498 78.7454 495.824C76.6718 495.149 71.948 494.229 70.6105 493.481C69.2731 492.733 67.0155 491.372 67.0155 491.372L67.0278 491.359Z" fill="#291A6D"/>
<path d="M60.6107 483.841L60.8438 490.194L60.9174 492.156C64.4388 493.211 67.04 491.359 67.04 491.359L67.1014 489.078L67.2486 483.952L60.6229 483.829L60.6107 483.841Z" fill="#E8C4B9"/>
<path d="M36.6969 383.959C37.887 378.722 60.5861 384.082 60.5861 384.082C60.5861 384.082 60.537 385.173 60.4512 387.001C63.6536 385.713 67.8498 382.291 73.5921 383.554C73.5921 383.554 75.1626 404.895 75.1626 426.701C75.1626 433.557 74.8927 444.349 74.0583 453.597C72.5246 470.595 68.4879 486.233 68.4879 486.233L58.6107 486.171C58.6107 486.171 60.3775 470.693 59.6291 453.499C59.2364 444.423 57.4328 429.988 56.7334 422.825C55.531 430.564 55.4205 444.644 53.7273 454.038C50.6967 470.816 46.1201 486.257 46.1201 486.257L36.6478 486.208C37.7153 474.998 38.3901 463.507 38.0956 453.83C37.2245 424.8 32.4024 402.675 36.6723 383.971L36.6969 383.959Z" fill="#291A6D"/>
<path d="M57.58 332.411C57.58 332.411 60.8315 326.708 63.8376 328.511C66.1689 329.909 78.7208 355.407 82.5858 359.688C83.6901 360.914 94.2789 363.943 94.2789 363.943C94.2789 363.943 95.2728 368.518 93.2237 372.602C92.5121 374.025 77.8374 368.543 76.6963 367.807C70.8682 364.091 64.7333 347.705 64.7333 347.705L57.5923 332.424L57.58 332.411Z" fill="#92ABBE"/>
<path d="M56.2181 321.079C56.2181 321.079 44.9299 321.275 41.3839 331.295C37.8379 341.303 32.9668 376.33 33.973 385.541C33.973 385.541 62.0217 390.95 76.046 384.143C76.046 384.143 72.5001 355.922 71.8988 348.318C71.2976 340.702 65.7762 322.489 56.2181 321.079Z" fill="#E8F3F5"/>
<path d="M59.3837 313.99C59.3837 313.99 58.169 321.901 59.3346 326.316C59.5555 327.174 59.0401 328.058 58.2058 328.34C54.9175 329.443 50.5004 325.139 48.3409 323.679C47.8869 321.202 49.163 311.513 49.163 311.513L59.3837 313.99Z" fill="#E8C4B9"/>
<path d="M90.9538 359.602C90.9538 359.602 98.2053 362.594 98.4384 363.085C98.6592 363.575 94.5979 375.337 93.8863 375.276C93.1746 375.215 87.7146 373.031 87.7146 373.031C87.7146 373.031 89.3219 361.282 90.9416 359.602H90.9538Z" fill="#92ABBE"/>
<path d="M56.7457 422.813C56.7457 422.813 58.4266 414.326 59.0769 408.12C59.0769 408.12 60.1321 422.85 57.5064 429.988L56.7457 422.813Z" fill="#161052"/>
<path d="M56.4389 365.783C59.6168 367.316 65.2486 369.352 65.2486 369.352C65.2486 369.352 68.1075 366.801 69.3222 366.691C70.5246 366.58 73.862 368.187 74.5982 368.592C75.3344 368.996 73.6166 369.597 72.6596 369.168C72.3283 369.021 70.2424 368.53 69.8498 368.886C69.4572 369.254 73.2363 369.99 75.2976 370.615C77.3589 371.241 80.5122 372.811 80.4141 373.179C80.2178 373.976 76.8681 372.651 76.316 372.443C75.7025 372.222 74.0583 372.026 74.0583 372.026C74.0583 372.026 74.954 373.559 73.9847 373.841C73.9847 373.841 74.0338 375.448 73.1626 375.448C73.1626 375.448 72.7209 376.686 71.3835 376.527C70.0338 376.367 66.4756 376.821 64.3775 374.16C64.3775 374.16 55.3346 372.909 52.6108 370.812C49.8746 368.714 53.2611 364.238 56.4389 365.771V365.783Z" fill="#E8C4B9"/>
<path d="M67.8743 293.496C67.8743 293.496 66.7701 300.708 69.2118 304.743C70.3897 306.705 67.0768 306.631 67.0768 306.631C67.0768 306.631 64.218 316.995 60.2794 316.185C56.353 315.376 49.4697 315.83 48.2182 313.512C46.9666 311.194 44.9053 295.471 51.7028 292.871C58.5002 290.283 67.8743 293.496 67.8743 293.496Z" fill="#E8C4B9"/>
<path d="M60.672 297.838C62.5615 298.169 64.4511 298.475 66.3529 298.255C69.2731 297.911 72.8068 296.783 74.0338 293.496C76.2669 287.511 73.224 283.942 73.224 283.942C73.224 283.942 72.954 286.53 72.1565 287.241C72.1565 287.241 71.6166 282.421 70.635 281.882C67.8621 283.783 64.5983 284.862 61.2364 284.874C57.1874 284.874 51.5678 285.892 47.2243 290.553C39.5434 298.77 44.9544 314.566 48.5249 317.154L50.1936 309.28C50.1936 309.28 47.7274 308.25 47.5801 306.815C47.4697 305.785 49.1875 302.265 51.0647 304.583C52.942 306.901 51.8746 313.07 54.6353 315.388C57.4082 317.706 66.4265 317.436 67.2363 313.867C68.0461 310.298 66.4265 308.238 66.4265 308.238C66.4265 308.238 62.2302 308.324 59.4573 309.931C56.6843 311.537 53.5555 306.619 54.2794 303.59C54.9052 300.916 57.4941 297.286 60.672 297.838Z" fill="#291A6D"/>
<path d="M59.126 327.604L48.3409 323.679L58.5493 331.761L59.126 327.604Z" fill="white"/>
<path d="M59.126 327.604L63.8376 330.425L58.8315 321.938L59.126 327.604Z" fill="white"/>
<path d="M63.8376 330.425L59.126 327.604L58.5493 331.761L61.8376 333.245L63.8376 330.425Z" fill="#F9AE71"/>
<path d="M62.3775 331.823C62.3775 331.823 67.175 338.053 67.175 353.678C67.175 355.518 64.6842 358.265 64.6842 358.265L61.3591 353.837C61.3591 353.837 61.5063 334.962 60.672 331.823C59.8254 328.695 62.3775 331.823 62.3775 331.823Z" fill="#F9AE71"/>
<path d="M54.5739 341.745C52.623 347.117 49.2979 356.474 48.8562 359.136C48.2918 362.594 56.0831 363.244 56.0831 363.244L56.7457 373.289C56.7457 373.289 42.0833 372.406 39.568 367.77C36.0466 361.27 36.3778 346.368 39.7275 337.096C42.0342 330.731 50.1077 328.376 53.4451 332.411C55.7396 335.195 55.0893 340.285 54.5617 341.732L54.5739 341.745Z" fill="#92ABBE"/>
<path d="M56.7457 376.809C56.7457 376.809 50.6967 375.57 50.4636 375.08C50.2305 374.589 53.4329 360.718 54.1445 360.779C54.6967 360.828 58.0586 362.533 59.5064 363.281C59.899 363.49 60.1199 363.919 60.0463 364.348C59.6046 367.046 58.1199 375.362 56.758 376.809H56.7457Z" fill="#92ABBE"/>
<path d="M60.8315 490.194L60.9051 492.157C64.4265 493.211 67.0277 491.359 67.0277 491.359L67.0891 489.078C65.5308 489.323 62.856 489.753 60.8438 490.194H60.8315Z" fill="#D5E6F7"/>
<path d="M39.0649 489.789L39.1386 491.727C42.6477 492.794 45.2366 490.93 45.2366 490.93L45.298 488.87C43.5925 489.164 40.7091 489.642 39.0649 489.777V489.789Z" fill="#D5E6F7"/>
<path d="M227.737 173.328C229.062 173.292 235.026 176.198 234.032 175.696C233.05 175.193 230.179 173.145 230.363 172.911C230.547 172.678 231.713 172.813 233.578 173.512C235.443 174.199 239.308 176.37 239.332 176.186C239.357 176.002 237.676 174.825 237.087 174.579C236.486 174.346 234.167 172.629 234.94 172.507C235.725 172.384 239.013 173.586 240.989 174.199C242.878 174.788 244.976 177.474 246.314 179.191C247.001 180.086 247.909 180.785 248.952 181.227C250.522 181.889 253.038 182.944 254.903 183.631C257.811 184.71 253.258 191.235 253.258 191.235C253.258 191.235 249.05 188.598 246.498 186.844C245.394 186.084 244.093 185.654 242.756 185.605C238.756 185.446 237.823 184.501 236.179 183.52C234.118 182.294 228.633 178.112 229.173 177.928C229.48 177.83 231.308 178.664 232.608 179.314C230.682 178.173 227.578 176.014 228.179 175.794C228.682 175.597 231.602 176.799 232.989 177.413C231.087 176.395 226.535 173.39 227.725 173.353L227.737 173.328Z" fill="#F1CDC2"/>
<path d="M305.307 177.302C304.595 173.218 295.908 172.482 287.479 178.59C279.05 184.698 274.424 187.837 271.884 188.426C269.344 189.015 251.762 181.852 249.933 181.349C248.117 180.834 246.154 187.899 246.154 187.899C246.154 187.899 264.952 200.642 271.05 200.678C277.148 200.703 307.883 192.13 305.307 177.314V177.302Z" fill="#F44964"/>
<path d="M244.682 135.603C244.682 128.674 250.301 123.044 257.234 123.044C264.166 123.044 269.798 128.661 269.798 135.591C269.798 142.52 264.179 148.15 257.246 148.15C250.314 148.15 244.682 142.532 244.682 135.603Z" fill="#7893A5"/>
<path d="M237.762 192.388C242.596 192.388 246.51 188.463 246.51 183.643L257.246 142.422H234.964L229.013 183.655C229.013 188.488 232.94 192.4 237.762 192.4V192.388Z" fill="#92ABBE"/>
<path d="M158.204 170.127L214.805 152.16L214.78 119.083L158.168 101.189L158.204 170.127Z" fill="#92ABBE"/>
<path d="M233.7 157.924H253.59C254.804 157.912 255.786 156.931 255.786 155.717C255.786 154.503 254.804 153.521 253.59 153.521H233.7C232.486 153.534 231.504 154.515 231.504 155.729C231.504 156.943 232.486 157.924 233.7 157.924Z" fill="#7893A5"/>
<path d="M158.204 173.316C160.401 173.316 162.192 171.526 162.192 169.33L162.155 101.986C162.143 99.7784 160.364 98 158.155 98C155.959 98 154.168 99.7906 154.168 101.986L154.205 169.33C154.205 171.526 155.996 173.316 158.192 173.316H158.204Z" fill="#D6E3E5"/>
<path d="M255.04 154.119L214.844 154.14C211.09 154.142 208.033 151.09 208.031 147.337L208.019 123.899C208.017 120.146 211.07 117.091 214.825 117.089L255.02 117.068C258.775 117.066 261.832 120.118 261.834 123.871L261.846 147.321C261.848 151.074 258.794 154.129 255.04 154.131L255.04 154.119Z" fill="#D6E3E5"/>
<path d="M249.614 327.53C249.614 327.53 243.578 332.779 243.283 336.827C242.989 340.874 254.179 332.264 254.179 332.264C254.179 332.264 255.639 334.815 256.215 334.852C256.792 334.889 256.62 328.83 254.571 326.831C252.522 324.82 249.614 327.53 249.614 327.53Z" fill="#F44964"/>
<path d="M249.124 320.27L250.584 326.892C250.584 326.892 246.854 331.381 248.216 332.877C249.565 334.374 255.406 328.168 255.406 328.168L255.025 320.699L249.124 320.27Z" fill="#EDC9BE"/>
<path d="M229.627 312.739C229.627 312.739 223.59 317.988 223.296 322.036C223.001 326.083 234.191 317.473 234.191 317.473C234.191 317.473 235.651 320.024 236.228 320.061C236.805 320.098 236.633 314.039 234.584 312.04C232.535 310.041 229.627 312.739 229.627 312.739Z" fill="#F44964"/>
<path d="M229.136 305.491L230.596 312.114C230.596 312.114 226.878 316.602 228.228 318.099C229.578 319.595 235.418 313.389 235.418 313.389L235.038 305.92L229.136 305.491Z" fill="#EDC9BE"/>
<path d="M309.712 236.846C309.712 236.846 313.429 246.744 302.448 255.734C291.479 264.724 263.835 272.965 262.166 276.853C260.485 280.753 258.412 324.268 258.412 324.268C258.412 324.268 249.897 324.059 247.209 323.409C244.522 322.759 243.295 277.871 246.486 271.629C251.467 261.854 275.319 245.015 275.319 245.015C275.319 245.015 256.4 255.39 246.007 268.305C239.737 276.093 239.16 299.113 237.627 307.49C234.167 309.648 225.553 307.858 225.553 307.858C225.553 307.858 224.707 266.22 231.835 257.475C246.768 239.164 276.51 228.041 276.51 228.041L309.699 236.846H309.712Z" fill="#291A6D"/>
<path d="M298.117 170.078C298.117 170.078 309.822 175.315 312.08 196.766C314.337 218.217 310.264 240.489 310.264 240.489C310.264 240.489 287.467 240.182 271.54 228.408C271.54 228.408 277.172 190.499 284.829 176.689C288.644 169.833 298.104 170.066 298.104 170.066L298.117 170.078Z" fill="#F44964"/>
<path d="M299.736 163.296C299.736 163.296 299.405 168.876 300.779 171.857C300.779 171.857 293.945 176.799 288.411 172.85C288.411 172.85 290.632 163.909 289.283 161.211C287.933 158.513 299.736 163.284 299.736 163.284V163.296Z" fill="#F3CCB9"/>
<path d="M283.086 153.669C283.307 161.187 288.632 167.135 294.988 166.951C301.344 166.767 306.313 160.512 306.08 152.994C305.859 145.476 300.534 139.528 294.178 139.712C287.822 139.896 282.853 146.151 283.086 153.669Z" fill="#F3CCB9"/>
<path d="M294.019 142.397C294.019 142.397 285.148 141.514 282.595 148.186C282.595 148.186 277.565 137.761 286.878 135.713C293.663 134.217 294.019 142.397 294.019 142.397Z" fill="#291A6D"/>
<path d="M298.043 157.618C298.043 157.618 299.147 158.317 300.534 157.471C302.362 156.342 301.736 151.841 297.43 153.84C297.43 153.84 289.307 151.387 289.896 142.704C289.896 142.704 291.97 134.659 302.877 138.313C315.491 142.532 310.976 158.623 303.81 164.4C302.448 165.504 300.767 166.313 299.724 166.559C297.675 163.934 298.031 157.618 298.031 157.618H298.043Z" fill="#291A6D"/>
<path d="M305.614 143.281C305.614 143.281 313.92 133.175 323.969 138.436C334.018 143.698 326.791 164.118 324.251 169.968C321.712 175.818 327.699 181.251 333.54 182.036C333.54 182.036 316.215 192.277 310.092 176.26C306.89 167.895 315.123 150.86 309.712 149.082C304.301 147.303 305.626 143.293 305.626 143.293L305.614 143.281Z" fill="#291A6D"/>
<path d="M310.558 149.891C308.902 148.444 306.509 144.409 307.675 141.257C308.841 138.105 308.89 142.373 309.209 143.697C309.528 145.022 312.963 152 310.558 149.891Z" fill="#F44964"/>
<path d="M284.289 150.7C284.289 150.7 282.939 154.453 281.393 156.649C280.534 157.875 284.89 157.434 284.89 157.434L284.289 150.7Z" fill="#F3CCB9"/>
<path d="M230.51 163.725C231.811 163.958 237.038 168.055 236.179 167.356C235.32 166.657 232.94 164.057 233.173 163.86C233.406 163.676 234.51 164.057 236.191 165.124C237.872 166.191 241.197 169.11 241.259 168.938C241.32 168.766 239.921 167.258 239.394 166.902C238.866 166.546 236.94 164.388 237.737 164.424C238.522 164.474 241.492 166.338 243.308 167.343C245.038 168.312 246.522 171.378 247.455 173.341C247.946 174.359 248.682 175.229 249.614 175.88C251.013 176.861 253.246 178.418 254.927 179.485C257.541 181.141 251.737 186.574 251.737 186.574C251.737 186.574 248.179 183.116 246.044 180.859C245.124 179.89 243.946 179.191 242.645 178.86C238.768 177.866 238.056 176.75 236.645 175.438C234.891 173.807 230.4 168.558 230.977 168.509C231.296 168.472 232.915 169.686 234.044 170.581C232.4 169.06 229.823 166.313 230.449 166.203C230.977 166.117 233.59 167.908 234.817 168.791C233.173 167.405 229.357 163.505 230.523 163.713L230.51 163.725Z" fill="#F1CDC2"/>
<path d="M305.54 183.851C305.7 179.706 297.368 177.167 287.835 181.374C278.313 185.581 273.123 187.678 270.522 187.715C267.921 187.752 252.216 177.069 250.547 176.186C248.878 175.303 245.479 181.791 245.479 181.791C245.479 181.791 261.185 198.189 267.136 199.501C273.086 200.801 304.939 198.863 305.528 183.839L305.54 183.851Z" fill="#DC2C4A"/>
</g>
<g clip-path="url(#clip1_87_1540)">
<path d="M85.0208 87.6365V97.1457C85.0208 97.9466 85.5116 98.6647 86.2582 98.9515C86.4856 99.0393 86.7232 99.0832 86.9583 99.0832C87.4931 99.0832 88.0175 98.8611 88.3921 98.4477L94.8246 91.3668L85.0208 87.6365Z" fill="white"/>
<path d="M126.38 50.5165C125.838 50.0127 125.052 49.8629 124.36 50.1316L66.2348 72.7357C65.4883 73.0251 64.9974 73.7458 65 74.5492C65.0026 75.3527 65.4986 76.0682 66.2478 76.3524L82.2722 82.4465L117.096 60.1187L88.3688 84.7637L112.102 93.7899C112.324 93.8726 112.559 93.9165 112.792 93.9165C113.084 93.9165 113.376 93.8519 113.644 93.7202C114.127 93.4825 114.489 93.0588 114.647 92.5473L126.917 52.5057C127.132 51.7952 126.925 51.0228 126.38 50.5165Z" fill="white"/>
<path d="M86.2763 101.289C85.7881 101.289 85.2895 101.15 84.8503 100.858C83.662 100.07 83.3365 98.4658 84.127 97.2775C84.8555 96.177 85.2766 95.3736 85.305 95.3167C85.9612 94.0509 87.5112 93.5523 88.7796 94.2033C90.0454 94.8517 90.5492 96.4069 89.9033 97.6753C89.9033 97.6753 89.3789 98.7061 88.4334 100.132C87.9348 100.884 87.1159 101.289 86.2763 101.289Z" fill="white"/>
<path d="M75.9792 108.771C74.3956 108.771 73.0342 108.585 71.8226 108.202C70.4612 107.774 69.7042 106.322 70.1331 104.963C70.5645 103.599 72.0215 102.85 73.3726 103.273C74.4421 103.612 75.9946 103.896 77.6686 103.289C79.0068 102.814 80.4897 103.496 80.9779 104.839C81.4636 106.18 80.7712 107.663 79.4279 108.148C78.2887 108.562 77.1262 108.771 75.9792 108.771Z" fill="white"/>
<path d="M67.6583 99.7318C66.3098 99.7318 65.1731 98.6856 65.0827 97.3164C65.0284 96.4562 65 95.5391 65 94.5626C65 93.134 66.1547 91.9792 67.5833 91.9792C69.0119 91.9792 70.1667 93.134 70.1667 94.5626C70.1667 95.4177 70.1899 96.2263 70.239 96.9806C70.332 98.404 69.2522 99.6337 67.8287 99.7267C67.7719 99.7292 67.7177 99.7318 67.6583 99.7318Z" fill="white"/>
</g>
<g clip-path="url(#clip2_87_1540)">
<path d="M111.843 177.825C111.364 177.343 110.585 177.339 110.102 177.818C109.62 178.297 109.617 179.076 110.096 179.558L110.103 179.566C110.343 179.807 110.657 179.928 110.971 179.928C111.284 179.928 111.598 179.808 111.839 179.569C112.322 179.09 112.321 178.307 111.843 177.825Z" fill="white"/>
<path d="M126.64 192.622L115.211 181.194C114.731 180.713 113.952 180.713 113.471 181.194C112.991 181.674 112.991 182.453 113.471 182.934L122.544 192.006H100.909C99.114 192.006 97.6541 190.546 97.6541 188.752V167.117L106.413 175.876C106.893 176.356 107.673 176.356 108.153 175.876C108.634 175.395 108.634 174.616 108.153 174.136L97.0384 163.021C96.5579 162.541 95.7787 162.541 95.2982 163.021L75.6821 182.637C75.2016 183.118 75.2016 183.897 75.6821 184.378L105.283 213.979C105.514 214.21 105.827 214.339 106.153 214.339C106.48 214.339 106.793 214.21 107.023 213.979L126.64 194.362C126.87 194.132 127 193.819 127 193.492C127 193.166 126.87 192.853 126.64 192.622ZM95.1934 166.606V182.277H79.5226L95.1934 166.606ZM104.923 210.138L79.5226 184.738H95.1934V188.752C95.1934 191.903 97.7574 194.467 100.909 194.467H104.923V210.138ZM107.384 210.138V194.467H123.054L107.384 210.138Z" fill="white"/>
<path d="M72.4448 188.254H65.2305C64.5509 188.254 64 188.805 64 189.484C64 190.164 64.5509 190.715 65.2305 190.715H72.4448C73.1244 190.715 73.6753 190.164 73.6753 189.484C73.6753 188.805 73.1244 188.254 72.4448 188.254Z" fill="white"/>
<path d="M76.1135 188.254H76.095C75.4154 188.254 74.8646 188.805 74.8646 189.484C74.8646 190.164 75.4154 190.715 76.095 190.715H76.1135C76.7931 190.715 77.344 190.164 77.344 189.484C77.344 188.805 76.7931 188.254 76.1135 188.254Z" fill="white"/>
<path d="M69.1699 175.334H65.2321C64.5525 175.334 64.0016 175.885 64.0016 176.565C64.0016 177.244 64.5525 177.795 65.2321 177.795H69.1699C69.8495 177.795 70.4004 177.244 70.4004 176.565C70.4004 175.885 69.8495 175.334 69.1699 175.334Z" fill="white"/>
<path d="M77.844 175.334H73.1894C72.5098 175.334 71.9589 175.885 71.9589 176.565C71.9589 177.244 72.5098 177.795 73.1894 177.795H77.844C78.5236 177.795 79.0745 177.244 79.0745 176.565C79.0745 175.885 78.5236 175.334 77.844 175.334Z" fill="white"/>
<path d="M80.523 195.021H73.6325C72.9529 195.021 72.402 195.572 72.402 196.252C72.402 196.931 72.9529 197.482 73.6325 197.482H80.523C81.2026 197.482 81.7535 196.931 81.7535 196.252C81.7535 195.572 81.2025 195.021 80.523 195.021Z" fill="white"/>
<path d="M85.9033 202.896H68.5538C67.8742 202.896 67.3234 203.447 67.3234 204.126C67.3234 204.806 67.8742 205.357 68.5538 205.357H85.9033C86.5829 205.357 87.1338 204.806 87.1338 204.126C87.1338 203.447 86.5829 202.896 85.9033 202.896Z" fill="white"/>
</g>
<g clip-path="url(#clip3_87_1540)">
<path d="M177.844 32.7583C176.441 32.7583 175.07 32.4001 173.827 31.7024C173.188 31.3731 172.94 30.5494 173.322 29.9297C174.591 27.9019 175.049 25.4231 174.468 23.0919C173.866 20.6752 172.995 18.6398 173.001 16.0814C173.022 7.10558 180.493 -0.171068 189.46 0.00306139C198.121 0.177503 205.258 7.45789 205.259 16.1209C205.259 27.435 193.401 35.3784 182.934 31.0094C181.491 32.1419 179.677 32.7583 177.844 32.7583ZM176.139 29.9959C178.111 30.6083 180.328 30.1191 181.849 28.649C182.224 28.2867 182.784 28.1956 183.254 28.4204C192.216 32.7053 202.764 25.9892 202.763 16.1209C202.763 8.75716 196.773 2.64578 189.41 2.49754C181.822 2.3468 175.514 8.49238 175.496 16.0875C175.49 18.5175 176.438 20.4595 176.956 22.7615C177.502 25.1873 177.214 27.7526 176.139 29.9959Z" fill="white"/>
<path d="M210.156 42.0001C208.323 42.0001 206.509 41.3836 205.067 40.2513C199.5 42.5746 192.878 41.5165 188.313 37.5747C187.792 37.1243 187.734 36.3366 188.185 35.8151C188.635 35.2937 189.423 35.2359 189.944 35.6864C193.993 39.1825 199.921 39.9689 204.746 37.6623C205.216 37.4373 205.776 37.5286 206.151 37.8909C207.672 39.3609 209.89 39.8504 211.862 39.2377C210.593 36.591 210.417 33.5589 211.4 30.7518C211.409 30.7265 211.419 30.7017 211.429 30.6769C212.147 28.984 212.509 27.1847 212.505 25.3292C212.497 22.0579 211.408 19.0318 209.357 16.5778C208.916 16.0491 208.986 15.2625 209.515 14.8206C210.043 14.3787 210.83 14.4492 211.272 14.9778C213.667 17.843 214.99 21.517 215 25.3232C215.005 27.5033 214.582 29.6191 213.742 31.6126C212.861 34.165 213.266 36.898 214.678 39.1713C215.061 39.7911 214.813 40.6149 214.173 40.9444C212.931 41.6418 211.559 42 210.156 42.0001Z" fill="white"/>
<path d="M189.129 18.1558C190.22 18.1558 191.103 17.2725 191.103 16.1829C191.103 15.0933 190.22 14.21 189.129 14.21C188.039 14.21 187.155 15.0933 187.155 16.1829C187.155 17.2725 188.039 18.1558 189.129 18.1558Z" fill="white"/>
<path d="M181.857 18.1558C182.947 18.1558 183.831 17.2725 183.831 16.1829C183.831 15.0933 182.947 14.21 181.857 14.21C180.767 14.21 179.883 15.0933 179.883 16.1829C179.883 17.2725 180.767 18.1558 181.857 18.1558Z" fill="white"/>
<path d="M196.402 18.1558C197.492 18.1558 198.376 17.2725 198.376 16.1829C198.376 15.0933 197.492 14.21 196.402 14.21C195.312 14.21 194.428 15.0933 194.428 16.1829C194.428 17.2725 195.312 18.1558 196.402 18.1558Z" fill="white"/>
</g>
<path d="M305.881 40.3073L302.705 24.3672C302.625 23.9667 302.394 23.6209 302.053 23.3933C301.712 23.1658 301.304 23.0842 300.903 23.1641L296.817 23.9782C296.817 23.9782 296.817 23.9782 296.817 23.9782C295.988 24.1433 295.449 24.9515 295.614 25.78L295.653 25.9767C293.204 26.7892 290.227 27.0232 286.524 23.9676C284.837 22.5758 282.638 22.53 281.053 23.8534L279.399 25.234H270.394C270.293 24.6223 269.826 24.1063 269.183 23.9781L265.097 23.164C264.696 23.0841 264.288 23.1657 263.947 23.3932C263.606 23.6208 263.375 23.9667 263.295 24.3671L260.119 40.3073C259.954 41.1357 260.494 41.944 261.323 42.1091L265.409 42.9232C265.509 42.9432 265.61 42.9531 265.71 42.9531C266.01 42.9531 266.303 42.8646 266.559 42.6941C266.899 42.4664 267.131 42.1206 267.211 41.7201L267.23 41.623L276.923 51.3156C277.498 51.8906 278.265 52.2072 279.082 52.2072C279.9 52.2072 280.666 51.8906 281.241 51.3157C281.651 50.9059 281.93 50.3985 282.056 49.8448L283.403 51.1921C284.594 52.3826 286.531 52.3825 287.722 51.1919C288.141 50.7725 288.413 50.2604 288.537 49.7211C289.108 50.2771 289.862 50.5828 290.665 50.5828C291.483 50.5828 292.25 50.2661 292.825 49.6911C293.486 49.0292 293.78 48.1368 293.706 47.27C293.793 47.2772 293.88 47.2808 293.967 47.2808C294.785 47.2808 295.551 46.9642 296.126 46.3892C296.932 45.5837 297.207 44.3802 296.875 43.3116L298.735 41.4515L298.789 41.7201C298.869 42.1207 299.1 42.4665 299.441 42.6941C299.697 42.8647 299.99 42.9532 300.29 42.9532C300.39 42.9532 300.491 42.9433 300.591 42.9233L304.677 42.1092C305.506 41.944 306.046 41.1357 305.881 40.3073ZM265.76 41.4984C265.745 41.5086 265.721 41.5195 265.69 41.5133L261.604 40.6993C261.554 40.6895 261.519 40.6374 261.529 40.5881L264.705 24.648C264.711 24.6175 264.73 24.5989 264.745 24.5887C264.758 24.5807 264.776 24.5721 264.798 24.5721C264.804 24.5721 264.81 24.5727 264.816 24.5739L268.902 25.388C268.952 25.3979 268.986 25.4498 268.977 25.4992L265.801 41.4391C265.795 41.4698 265.776 41.4883 265.76 41.4984ZM295.11 45.3726C294.807 45.6761 294.401 45.8433 293.967 45.8433C293.534 45.8433 293.128 45.6762 292.825 45.3727L285.873 38.4206C285.592 38.1399 285.137 38.14 284.856 38.4206C284.575 38.7013 284.575 39.1564 284.856 39.437L291.808 46.3891C292.438 47.0191 292.438 48.0443 291.808 48.6745C291.505 48.978 291.099 49.1451 290.665 49.1451C290.232 49.1451 289.826 48.9781 289.523 48.6746L282.177 41.3287C281.896 41.0479 281.441 41.0481 281.16 41.3287C280.88 41.6095 280.88 42.0644 281.16 42.3451L286.705 47.8895L286.705 47.8899H286.705C287.335 48.5199 287.335 49.5451 286.705 50.1753C286.075 50.8055 285.05 50.8053 284.42 50.1754L278.481 44.2368C278.2 43.9562 277.745 43.956 277.465 44.2368C277.184 44.5174 277.184 44.9725 277.465 45.2532L280.225 48.0134C280.528 48.3168 280.695 48.7228 280.695 49.1562C280.695 49.5896 280.528 49.9954 280.225 50.299C279.921 50.6023 279.516 50.7694 279.082 50.7694C278.649 50.7694 278.243 50.6023 277.939 50.2989L267.568 39.9278L270.209 26.6715H277.678L275.574 28.4282C274.663 29.1887 274.271 30.2258 274.5 31.2735L276.162 38.89C276.204 39.0795 276.32 39.2442 276.484 39.3467C276.649 39.4493 276.848 39.4811 277.036 39.4346C279.033 38.9427 280.367 37.9807 281.117 36.4936C281.765 35.2083 281.893 33.7459 282.029 32.1978C282.047 32.001 282.064 31.8031 282.083 31.6046C282.085 31.5878 282.088 31.576 282.09 31.5681C282.338 31.4637 283.558 31.7053 285.426 33.4033L295.435 43.5584C295.71 44.166 295.583 44.8995 295.11 45.3726ZM296.035 42.119L286.436 32.3804C286.427 32.3712 286.418 32.3623 286.408 32.3536C284.492 30.6079 282.689 29.8119 281.582 30.2247C281.061 30.419 280.723 30.8628 280.654 31.4422C280.654 31.4479 280.653 31.4535 280.652 31.4593C280.633 31.6643 280.615 31.8686 280.597 32.0718C280.364 34.7202 280.176 36.8529 277.402 37.8291L275.904 30.9671C275.753 30.2735 276.209 29.7701 276.495 29.5319L281.974 24.957C283.012 24.0909 284.472 24.139 285.609 25.0766C289.772 28.5118 293.258 28.2497 295.936 27.3966L298.398 39.7563L296.035 42.119ZM304.396 40.6993L300.31 41.5133C300.279 41.5195 300.255 41.5086 300.24 41.4984C300.224 41.4883 300.205 41.4698 300.199 41.4391L297.023 25.4991C297.014 25.4498 297.048 25.3978 297.098 25.3879L301.184 24.5738C301.215 24.5676 301.239 24.5786 301.255 24.5887C301.27 24.5989 301.289 24.6174 301.295 24.648L304.471 40.5881C304.481 40.6375 304.446 40.6895 304.396 40.6993ZM282.281 17.5438V12.5112C282.281 12.1143 282.603 11.7925 283 11.7925C283.397 11.7925 283.719 12.1143 283.719 12.5112V17.5438C283.719 17.9408 283.397 18.2626 283 18.2626C282.603 18.2626 282.281 17.9408 282.281 17.5438ZM275.805 14.6316C275.607 14.2879 275.725 13.8483 276.068 13.6498C276.412 13.4514 276.852 13.5692 277.05 13.9129L279.566 18.2712C279.765 18.6149 279.647 19.0546 279.303 19.253C279.19 19.3183 279.067 19.3494 278.945 19.3494C278.696 19.3494 278.455 19.2205 278.322 18.99L275.805 14.6316ZM270.994 18.7242C271.192 18.3804 271.632 18.2625 271.976 18.4611L276.334 20.9774C276.678 21.1759 276.796 21.6155 276.597 21.9592C276.464 22.1897 276.222 22.3187 275.974 22.3187C275.852 22.3187 275.729 22.2876 275.615 22.2223L271.257 19.706C270.913 19.5075 270.795 19.0679 270.994 18.7242ZM286.434 18.2713L288.95 13.913C289.148 13.5691 289.588 13.4514 289.932 13.6499C290.276 13.8484 290.393 14.288 290.195 14.6317L287.679 18.99C287.545 19.2206 287.304 19.3495 287.055 19.3495C286.933 19.3495 286.81 19.3184 286.697 19.2531C286.353 19.0546 286.235 18.615 286.434 18.2713ZM289.666 20.9774L294.024 18.4611C294.368 18.2627 294.808 18.3805 295.006 18.7242C295.205 19.0679 295.087 19.5075 294.743 19.706L290.385 22.2223C290.272 22.2876 290.148 22.3187 290.026 22.3187C289.778 22.3187 289.536 22.1897 289.403 21.9592C289.204 21.6155 289.322 21.1759 289.666 20.9774Z" fill="white"/>
<path d="M342.877 76.8662H348.654C349.075 76.8662 349.416 76.5252 349.416 76.1045C349.416 75.6841 349.075 75.3428 348.654 75.3428H342.877C342.457 75.3428 342.116 75.6841 342.116 76.1045C342.116 76.5252 342.457 76.8662 342.877 76.8662Z" fill="white"/>
<path d="M342.877 80.5227H349.162C349.582 80.5227 349.924 80.1814 349.924 79.761C349.924 79.3403 349.582 78.9993 349.162 78.9993H342.877C342.457 78.9993 342.116 79.3403 342.116 79.761C342.116 80.1814 342.457 80.5227 342.877 80.5227Z" fill="white"/>
<path d="M352.304 80.5225C352.505 80.5225 352.701 80.4418 352.843 80.2993C352.985 80.1577 353.066 79.9619 353.066 79.7607C353.066 79.5605 352.985 79.3638 352.843 79.2222C352.701 79.0806 352.505 78.999 352.304 78.999C352.104 78.999 351.907 79.0806 351.766 79.2222C351.623 79.3638 351.543 79.5605 351.543 79.7607C351.543 79.9619 351.623 80.1577 351.766 80.2993C351.907 80.4418 352.103 80.5225 352.304 80.5225Z" fill="white"/>
<path d="M359.397 75.606C363.094 75.606 366.101 72.599 366.101 68.9026C366.101 65.2065 363.094 62.1992 359.397 62.1992C355.701 62.1992 352.694 65.2065 352.694 68.9026C352.694 72.599 355.701 75.606 359.397 75.606ZM359.397 63.723C362.253 63.723 364.577 66.0465 364.577 68.9026C364.577 71.7588 362.253 74.0826 359.397 74.0826C356.541 74.0826 354.218 71.7588 354.218 68.9026C354.218 66.0465 356.541 63.723 359.397 63.723Z" fill="white"/>
<path d="M374.028 79.8806L373.107 78.9597V68.5964C373.107 66.4964 371.398 64.7876 369.298 64.7876H368.404C366.838 61.3756 363.39 59 359.397 59C355.404 59 351.956 61.3756 350.391 64.7876H342.028C339.927 64.7876 338.219 66.4964 338.219 68.5964V87.7923C338.219 89.8927 339.927 91.6012 342.028 91.6012H351.851V93.4311C349.785 93.471 348.117 95.1628 348.117 97.2382C348.117 97.6589 348.458 97.9999 348.879 97.9999H362.441C362.862 97.9999 363.203 97.6589 363.203 97.2382C363.203 95.1628 361.535 93.4713 359.469 93.4311V91.6012H369.298C371.398 91.6012 373.107 89.8927 373.107 87.7923V84.1268C373.449 83.9992 373.762 83.7992 374.028 83.5335C375.035 82.5264 375.035 80.8878 374.028 79.8806ZM369.298 66.3113C370.558 66.3113 371.584 67.3363 371.584 68.5964V77.4362L367.982 73.8347C368.82 72.3818 369.3 70.6974 369.3 68.9026C369.3 68.0064 369.18 67.1376 368.955 66.3113H369.298ZM359.397 60.5234C364.018 60.5234 367.776 64.2823 367.776 68.9026C367.776 73.5229 364.018 77.2818 359.397 77.2818C354.777 77.2818 351.018 73.5229 351.018 68.9026C351.018 64.2823 354.777 60.5234 359.397 60.5234ZM342.028 66.3113H349.839C349.615 67.1376 349.495 68.0064 349.495 68.9026C349.495 69.8691 349.634 70.8027 349.894 71.6865H342.877C342.457 71.6865 342.116 72.0274 342.116 72.4482C342.116 72.8686 342.457 73.2099 342.877 73.2099H350.481C352.086 76.5186 355.48 78.8055 359.397 78.8055C361.192 78.8055 362.876 78.3256 364.329 77.4877L370.375 83.5335C370.713 83.8721 371.13 84.1048 371.584 84.2158V84.8978H339.742V68.5964C339.742 67.3363 340.768 66.3113 342.028 66.3113ZM361.549 96.4765H349.771C350.085 95.5895 350.933 94.9528 351.926 94.9528H359.394C360.387 94.9528 361.235 95.5895 361.549 96.4765ZM357.946 93.4293H353.375V91.6012H357.946V93.4293ZM369.298 90.0778H342.028C340.768 90.0778 339.742 89.0524 339.742 87.7923V86.4212H371.584V87.7923C371.584 89.0524 370.558 90.0778 369.298 90.0778ZM372.95 82.4561C372.537 82.8694 371.865 82.8691 371.452 82.4561L365.607 76.6105C366.158 76.166 366.66 75.6635 367.105 75.1124L372.95 80.958C373.363 81.371 373.363 82.0431 372.95 82.4561Z" fill="white"/>
<path d="M359.397 66.9985C360.447 66.9985 361.302 67.8528 361.302 68.9025C361.302 69.3233 361.642 69.6642 362.063 69.6642C362.484 69.6642 362.825 69.3233 362.825 68.9025C362.825 67.0125 361.287 65.4751 359.397 65.4751C358.976 65.4751 358.635 65.8164 358.635 66.2368C358.635 66.6575 358.976 66.9985 359.397 66.9985Z" fill="white"/>
<defs>
<clipPath id="clip0_87_1540">
<rect width="556.324" height="401" fill="white" transform="translate(33.838 98)"/>
</clipPath>
<clipPath id="clip1_87_1540">
<rect width="62" height="62" fill="white" transform="translate(65 50)"/>
</clipPath>
<clipPath id="clip2_87_1540">
<rect width="63" height="63" fill="white" transform="translate(64 157)"/>
</clipPath>
<clipPath id="clip3_87_1540">
<rect width="42" height="42" fill="white" transform="translate(173)"/>
</clipPath>
</defs>
</svg>
